<svg xmlns="http://www.w3.org/2000/svg" width="272.96" height="52.56" viewBox="0 0 272.96 52.56">
  <path id="Path_9" data-name="Path 9" d="M9.52,24.48q-.16-4.56,9.84-4.56,10.56,0,14.48.88a9.3,9.3,0,0,1,.36,1.6q.2,1.2.6,3.28.48,3.84.48,4.4-1.04-1.12-2.36-2.8t-3.08-4a18.712,18.712,0,0,0-4-.32l-5.92.16V37.36L26,38a2.842,2.842,0,0,0,2.56-1.44,6.648,6.648,0,0,0,.72-1.24q.4-.84.96-1.96v6l-.72,1.36a32.28,32.28,0,0,1,.76,3.4,14.487,14.487,0,0,1,.2,1.96A20.555,20.555,0,0,0,28,41.36a5.245,5.245,0,0,0-4-1.52H22.56q-.8,0-1.68.08l-.96.08-.16,9.12q0,3.76.56,4.8.72,1.36,3.28,1.36h2.64q.88-.08,1.52-.08h1.2q3.2,0,4.64-1.84a19.6,19.6,0,0,0,2.16-5.92l.32,1.2a23.594,23.594,0,0,1-.56,4.64q-.32,1.92-.48,3.12T34.8,58q-3.28.24-6.88.24-2.88,0-8.48-.24-2.88-.08-5-.12t-3.48-.04A8.113,8.113,0,0,0,8.72,58q4.56-1.04,5.12-7.12l.8-.56v-.08L13.2,48.08a14.375,14.375,0,0,1,1.48.64q1,.48,2.6,1.2-.24-.32-1.08-1.36t-2.28-2.88l.24-3.52a23.507,23.507,0,0,0-.8-6.16l.08-.08a12.231,12.231,0,0,1,2.08,1.04,24.461,24.461,0,0,1-1.4-3.68,10.375,10.375,0,0,1-.44-2.64,7.08,7.08,0,0,1,.4-2.96l1.68-1.92-2.56.8.48-1.28-.16-1.6-1.28-.4a4.459,4.459,0,0,0-2.88,1.36Zm34.8-4.24,2.08,1.84-.08-1.68.56-.08q1.2,0,3.6.24,1.36.16,2.24.24t1.36.08a2.637,2.637,0,0,1,1.76.4l1.52-.24.32.16-.88,1.36a10.3,10.3,0,0,0-1.28.28q-.72.2-1.6.52l-.24,2.4q1.36.24,2.96,3.28.16.32.72,1.4t1.52,3.08q.88-.4,2.88-4.24a43.923,43.923,0,0,0,2.16-5.36l-.08-.48a5.07,5.07,0,0,0-1.76-.48l-1.76-.16a2.353,2.353,0,0,1,1.76-1.12l-.96.08a1.008,1.008,0,0,1-1.04-.56l.64-.8q.64-.08,1.8-.2t2.92-.28a8.773,8.773,0,0,0,2.68-.68,5.107,5.107,0,0,1,2.04-.52l-1.04,3.2.08.16a6.363,6.363,0,0,0,1.52-1.2h.72l.96.64v.88a11.11,11.11,0,0,0-5.76,3.92l-3.12,5.6a16.552,16.552,0,0,1-5.04,5.6l2.56-.24a4.486,4.486,0,0,1,1.36,2.08q.16.4.44,1.04t.68,1.52q.24.64.96,2.12t1.92,3.8q1.44,2.88,2.44,4.56a12.958,12.958,0,0,0,1.48,2.16,14.37,14.37,0,0,1,3.04,1.92,3.692,3.692,0,0,0-.72,1.12l.72.24H71.84q-.16,0-1.4-.12t-3.56-.28v-.08l.24-1.76v-.08q-.56.32-1.36.76t-1.92,1a7.97,7.97,0,0,1-3.52.56q-.16-.08-.64-.28t-1.2-.52l-.08-.08a4.619,4.619,0,0,1,2-1.28,8.82,8.82,0,0,0,2.16-1.12v-.32q-1.04-2.72-5.2-10.72l-3.84,6.16a19.575,19.575,0,0,1-4.4,5.28L52.8,53.2l-.72,1.12L55.6,56q.24,1.36.24,1.44l-.08.4-.88.08q-1.04.08-4,.08Q48,58,43.2,57.84l-.08-1.36.08-.16.88.56q3.28-1.76,6.32-7.2.32-.48,1.56-2.72t3.48-6.32q-.72-1.04-1.64-2.56t-2.04-3.52l.24-.32,2.08-1.04q-2.88-1.92-5.92-6.88A23.69,23.69,0,0,0,46,23.24a3.036,3.036,0,0,0-2.16-1.08v-1.2l-.16.08ZM105.2,30.4q0,11.28-8.88,11.28-4.88,0-4.88-3.84a15.611,15.611,0,0,1,.88-4.24q0,4.72,2.08,4.72t4-3.04h1.76l.08-.08-1.2-2.24q.16-.88.24-1.6a10.835,10.835,0,0,0,.08-1.12q0-6.8-8-6.8l-.88.64q-.24,5.52-.32,11.8t-.08,13.48q0,11.76.24,15.36l3.2.4a4.589,4.589,0,0,1,2.88,1.36,40.088,40.088,0,0,1-15.84,4.8L80,70.32q.64-.56,1.48-1.32a13.382,13.382,0,0,1,2.68-1.72,16.526,16.526,0,0,0,.2-2.4q.04-1.52.04-3.76V57.04q0-2.24-.08-4.96l.16-.16L87.2,53.2a39.5,39.5,0,0,1-2.64-3.36v-.72q0-.4.04-2.04t.12-4.44q.08-2,.08-3.52a23.39,23.39,0,0,0-.16-2.88A7.609,7.609,0,0,1,86.8,34.8a9.5,9.5,0,0,1-2.64-.16l.48-2.08q0-1.84-.2-4.08a44.377,44.377,0,0,0-.76-4.96,34.47,34.47,0,0,1-3.76-1.44q3.44-1.6,9.52-1.6h5.52Q105.2,20.48,105.2,30.4Zm8.24-5.92q-.16-4.56,9.84-4.56,10.56,0,14.48.88a9.294,9.294,0,0,1,.36,1.6q.2,1.2.6,3.28.48,3.84.48,4.4-1.04-1.12-2.36-2.8t-3.08-4a18.713,18.713,0,0,0-4-.32l-5.92.16V37.36l6.08.64a2.842,2.842,0,0,0,2.56-1.44,6.648,6.648,0,0,0,.72-1.24q.4-.84.96-1.96v6l-.72,1.36a32.278,32.278,0,0,1,.76,3.4,14.487,14.487,0,0,1,.2,1.96,20.554,20.554,0,0,0-2.48-4.72,5.245,5.245,0,0,0-4-1.52h-1.44q-.8,0-1.68.08l-.96.08-.16,9.12q0,3.76.56,4.8.72,1.36,3.28,1.36h2.64q.88-.08,1.52-.08h1.2q3.2,0,4.64-1.84a19.6,19.6,0,0,0,2.16-5.92l.32,1.2a23.594,23.594,0,0,1-.56,4.64q-.32,1.92-.48,3.12t-.24,1.6q-3.28.24-6.88.24-2.88,0-8.48-.24-2.88-.08-5-.12t-3.48-.04a8.113,8.113,0,0,0-2.24.16q4.56-1.04,5.12-7.12l.8-.56v-.08l-1.44-2.16a14.375,14.375,0,0,1,1.48.64q1,.48,2.6,1.2-.24-.32-1.08-1.36t-2.28-2.88l.24-3.52a23.507,23.507,0,0,0-.8-6.16l.08-.08a12.231,12.231,0,0,1,2.08,1.04,24.462,24.462,0,0,1-1.4-3.68,10.375,10.375,0,0,1-.44-2.64,7.08,7.08,0,0,1,.4-2.96l1.68-1.92-2.56.8.48-1.28-.16-1.6-1.28-.4a4.459,4.459,0,0,0-2.88,1.36Zm40.08,28.96q-1.12-.32-1.92-.48a29.344,29.344,0,0,0,.96-7.52V37.68h1.6l-2.08-3.28V31.12a10.847,10.847,0,0,1,.08-1.68q.24-3.84,1.36-3.84h.32l-.96-1.76a11.007,11.007,0,0,1-4.8-1.84h.32a14.459,14.459,0,0,1,2,.24l.08-.08q-.4-.32-1-.84T148,20.16l.48-.16q6.48.48,10.24.48a14.869,14.869,0,0,0,3.6-.56l.88.72.4,1.44q-1.28.32-2,.48t-.96.24q-2.16.8-2.08,2.08L157.2,27.6l2.08-.96-1.04,1.04q-.64.64-1.44,1.52v2.08l.8-1.92.88.88-.16,22.48.24,1.2,2.88-.32-.24,1.76a8.672,8.672,0,0,1,1.52-.64,23.2,23.2,0,0,1,2.48-.64q1.68-.4,2.76-.72a10.855,10.855,0,0,0,1.72-.64,3.234,3.234,0,0,0,2.16-2.96,26.861,26.861,0,0,0-.88-4l2.08,1.68a16.152,16.152,0,0,1,1.52,6,18.842,18.842,0,0,1-.12,2.16q-.12,1.04-.28,2.16l-1.44.08q-.56.08-1.12.12t-1.28.04q-.96,0-2.44-.08t-3.48-.24q-1.92-.16-3.4-.28t-2.44-.12q-.72,0-2.28-.08t-2.36-.08q-5.92,0-8.56,4.08,0-3.6,1.68-5.2a10.344,10.344,0,0,1,3.44-1.44q1.36-.4,2.08-.68A5.822,5.822,0,0,0,153.52,53.44Zm33.84,0q-1.12-.32-1.92-.48a29.344,29.344,0,0,0,.96-7.52V37.68H188l-2.08-3.28V31.12a10.847,10.847,0,0,1,.08-1.68q.24-3.84,1.36-3.84h.32l-.96-1.76a11.007,11.007,0,0,1-4.8-1.84h.32a14.459,14.459,0,0,1,2,.24l.08-.08q-.4-.32-1-.84t-1.48-1.16l.48-.16q6.48.48,10.24.48a14.869,14.869,0,0,0,3.6-.56l.88.72.4,1.44q-1.28.32-2,.48t-.96.24q-2.16.8-2.08,2.08l-1.36,2.72,2.08-.96-1.04,1.04q-.64.64-1.44,1.52v2.08l.8-1.92.88.88-.16,22.48.24,1.2,2.88-.32-.24,1.76a8.672,8.672,0,0,1,1.52-.64,23.2,23.2,0,0,1,2.48-.64q1.68-.4,2.76-.72a10.855,10.855,0,0,0,1.72-.64,3.234,3.234,0,0,0,2.16-2.96,26.861,26.861,0,0,0-.88-4l2.08,1.68a16.152,16.152,0,0,1,1.52,6,18.842,18.842,0,0,1-.12,2.16q-.12,1.04-.28,2.16l-1.44.08q-.56.08-1.12.12t-1.28.04q-.96,0-2.44-.08t-3.48-.24q-1.92-.16-3.4-.28t-2.44-.12q-.72,0-2.28-.08t-2.36-.08q-5.92,0-8.56,4.08,0-3.6,1.68-5.2a10.344,10.344,0,0,1,3.44-1.44q1.36-.4,2.08-.68A5.822,5.822,0,0,0,187.36,53.44Zm28.48-28.96q-.16-4.56,9.84-4.56,10.56,0,14.48.88a9.294,9.294,0,0,1,.36,1.6q.2,1.2.6,3.28.48,3.84.48,4.4-1.04-1.12-2.36-2.8t-3.08-4a18.713,18.713,0,0,0-4-.32l-5.92.16V37.36l6.08.64a2.842,2.842,0,0,0,2.56-1.44,6.648,6.648,0,0,0,.72-1.24q.4-.84.96-1.96v6l-.72,1.36a32.278,32.278,0,0,1,.76,3.4,14.487,14.487,0,0,1,.2,1.96,20.554,20.554,0,0,0-2.48-4.72,5.245,5.245,0,0,0-4-1.52h-1.44q-.8,0-1.68.08l-.96.08-.16,9.12q0,3.76.56,4.8.72,1.36,3.28,1.36h2.64q.88-.08,1.52-.08h1.2q3.2,0,4.64-1.84a19.6,19.6,0,0,0,2.16-5.92l.32,1.2a23.594,23.594,0,0,1-.56,4.64q-.32,1.92-.48,3.12t-.24,1.6q-3.28.24-6.88.24-2.88,0-8.48-.24-2.88-.08-5-.12t-3.48-.04a8.114,8.114,0,0,0-2.24.16q4.56-1.04,5.12-7.12l.8-.56v-.08l-1.44-2.16a14.375,14.375,0,0,1,1.48.64q1,.48,2.6,1.2-.24-.32-1.08-1.36t-2.28-2.88l.24-3.52a23.507,23.507,0,0,0-.8-6.16l.08-.08a12.231,12.231,0,0,1,2.08,1.04,24.462,24.462,0,0,1-1.4-3.68,10.376,10.376,0,0,1-.44-2.64,7.08,7.08,0,0,1,.4-2.96l1.68-1.92-2.56.8.48-1.28-.16-1.6-1.28-.4a4.459,4.459,0,0,0-2.88,1.36Zm44.88-1.36a13.066,13.066,0,0,0-.6,2.44,19.575,19.575,0,0,0-.2,2.92q0,.96.08,2.4t.32,3.36q.24,1.92.32,3.36t.08,2.48q0,1.44-.24,4.4-.16,1.44-.24,2.52t-.08,1.8q0,6.16,6.16,6.16,9.04,0,9.04-17.44,0-.64-.08-1.52a20.11,20.11,0,0,0-.32-2.08,19.662,19.662,0,0,1-.32-2.12q-.08-.92-.08-1.56a9.19,9.19,0,0,1,1.28-1.2,8.328,8.328,0,0,1-1.24-.48q-.68-.32-1.4-.72l-3.76-4a6.861,6.861,0,0,0-4.88-1.52A8.5,8.5,0,0,0,260.72,23.12ZM250.16,57.84a6.072,6.072,0,0,0,4.08-2.96,11.545,11.545,0,0,0,.88-5.04q0,.24-.04-1.04t-.12-4.08l1.12-1.2-1.12-1.6,2-2.32-2.16-1.92q-.08-1.04-.12-2.12t-.04-2.36q0-.8.04-2.8t.12-5.36l1.6-1.6a11.529,11.529,0,0,0-2.16.64q-1.52.56-4.08,1.6v-.16q0-3.12,3.76-4.8,1.36-.64,2.68-1.32a5.8,5.8,0,0,1,2.68-.68,34.256,34.256,0,0,1,9.04,1.04,25.731,25.731,0,0,1,6.08,2.4q7.28,4.24,7.28,16.08,0,8.96-3.2,14.08a11.387,11.387,0,0,1-10.08,5.52Z" transform="translate(-8.72 -18.72)" fill="#d30000"/>
</svg>
