<svg xmlns="http://www.w3.org/2000/svg" xmlns:xlink="http://www.w3.org/1999/xlink" width="468" height="600" viewBox="0 0 468 600">
  <defs>
    <clipPath id="clip-headerpicture">
      <rect width="468" height="600"/>
    </clipPath>
  </defs>
  <g id="headerpicture" clip-path="url(#clip-headerpicture)">
    <path id="Path_4" data-name="Path 4" d="M-12989.358-828.284c27.726-31.8,28.319-29.94,28.319-29.94l-2.415-17.885-3.854-5.323,3.854-2.976-3.854-5.678v-16.377a204.982,204.982,0,0,0,9.293-18.655,91.65,91.65,0,0,0,4.959-15.6,6.128,6.128,0,0,0,.637-3.983,31.375,31.375,0,0,0-1.455-4.173,32.189,32.189,0,0,0,3.452-5.729,32.943,32.943,0,0,0,2-6.433l3.116,12.162a10.608,10.608,0,0,0-1.227,4.173,32.728,32.728,0,0,0,.229,6.12,79.457,79.457,0,0,0,6.882,12.295,97.765,97.765,0,0,0,9.683,11.465l2.494,8.354s2.105-7.591,1.816-10.659a10.819,10.819,0,0,0-2.972-1.611l4.924-3.038s.607,8.482,1.792,14.625a50.561,50.561,0,0,0,2.947,9.946h0l8.58-9.263a154.154,154.154,0,0,0-2.162-27.729c-1.1-13.467-4.034-15.32-5.379-23.965a73.991,73.991,0,0,1-.788-15.57l-3.313-2.12s8.385-13.462,13.771-24.846a128.817,128.817,0,0,0,7.776-20.689v-64.011h-3.994a18.772,18.772,0,0,0,3.6-3.988,20.7,20.7,0,0,0,2.194-5.082,18.183,18.183,0,0,0,1.06,5.082,13.8,13.8,0,0,0,2.616,3.988h-1.908v61.846s5.56,10.693,12.237,21.331,14.475,21.22,14.475,21.22l-1.991,42.421,17.34-15.246,15.428-16.362v-21.748a3.665,3.665,0,0,1-1.447-2.354,4.976,4.976,0,0,1,1.447-2.7,4.734,4.734,0,0,0-.346-3.64,13.439,13.439,0,0,0-3.706-3.522v-16.726a122.155,122.155,0,0,0,8.577-19.733,264.736,264.736,0,0,0,6.874-26.261s4.852,14.6,9.523,24.9a94.91,94.91,0,0,0,9.166,16.286l1.628,17.1-1.628,11.5,29.049-29.495,14.214,9.767v-22.986l7.493-3.157-3.044-8.584,20.542-64.881s.019-2.219-3.428-6.006c2.692-.757,5.4-5.035,5.4-5.035a9.667,9.667,0,0,0,3.9,5.035,12.291,12.291,0,0,0-3.9,6.876l19.744,75.752a22.378,22.378,0,0,0-2.868,8.542c-.219,1.75.956,6.509.956,6.509s-1.455,8.016-2.675,11.093a240.014,240.014,0,0,0-.628,28.777l12.517,17.409L-12697.08-999v-11.729l-4.664-6.076,3.563-2.665s7.489-3.626,12.068-16.931c5.064-10.87,10.4-23.617,10.4-23.617s6.471,13.48,14.395,23.617a97.219,97.219,0,0,0,17.3,16.931l-15.181,2.665s-7.843,33.647-2.122,46.9c8.741-.061-1.526,46.274,14.123,9.7,5.957,6.988,9.706,18.252,9.706,18.252l-6.526,10.113-1.205,15.391,15.4,7.636,1.94-7.636,17.327-20.168-1.026-6.651-8.718,1.315v-10.5h5.816l5.967-3.084,1.152,13.581,8.015-10.5v-11.395s-2.436-1.711-2.436-2.473,5.962-7.839,5.962-7.839l3.247,6.7-2.1,7.254v6.09l17.161,28.608,5.4,1.852v3.576l3.513,34.842-2.18,30.621,34.441,31.282-3.073,97.49-38.679,34.985-5.236,11.5-8.943,3.693-4.919-2.012v9.539l-10.42,7.426-9.075-1.344-22.691,21.914v16.708l-5.457,4.411v3.6l-2.5,1.084-6.953-1.084v4.527l-8.332,4.655-8.239-3.612-21.4,17.79,1.762,8.536-8.861,12.106h-13.633l-66.278,43.928-32.531-28.934-9.5,7.384-8.211-9.457v-7.785h-10.5l-8.544-7.625,3.522-15.72-33.1-41.584-8.1,2.1-7.149-7.061v-7.344l-8.176,1.139-6.869-6.457v-11.353l-20.545-25.724h-9.818l-22.738-18.019-1.283-11.619-23.22-29.95-3.333-7.752Z" transform="translate(12997 1127)" fill="#6c2b23"/>
    <path id="Path_5" data-name="Path 5" d="M199.985,37.185a1.822,1.822,0,0,1-.666-.093.321.321,0,0,1-.222-.314q0-.259.37-.37a9.185,9.185,0,0,1,1-.222,5.377,5.377,0,0,0,2.275-.944,3.651,3.651,0,0,0,1.277-2.016l4.514-15.836a8.36,8.36,0,0,0,.444-2.5q-.074-.611-.555-.611H205.35a4.652,4.652,0,0,0-2.794.722,9.005,9.005,0,0,0-1.646,1.536,6.472,6.472,0,0,0-.611.8,8.638,8.638,0,0,1-.518.721.645.645,0,0,1-.463.3A.436.436,0,0,1,199,18.26a.572.572,0,0,1-.092-.389,2.225,2.225,0,0,1,.074-.37,4.692,4.692,0,0,1,.3-.777q.37-.74.832-1.7a11.1,11.1,0,0,0,.721-1.924,1.349,1.349,0,0,1,.278-.5q.2-.24.352-.24a.6.6,0,0,1,.333.129,1.6,1.6,0,0,1,.333.315,1.291,1.291,0,0,0,.333.222,2.463,2.463,0,0,0,.777.167q.555.055,1.7.055h13.209a14.644,14.644,0,0,0,1.72-.074,3.392,3.392,0,0,0,.833-.185,1.206,1.206,0,0,0,.37-.222,3.211,3.211,0,0,1,.333-.3.492.492,0,0,1,.3-.111q.37,0,.37.407a1.39,1.39,0,0,1-.13.555,4.332,4.332,0,0,1-.24.481,15.44,15.44,0,0,0-.592,1.572,21.16,21.16,0,0,0-.7,2.72.7.7,0,0,1-.148.407.355.355,0,0,1-.259.111.417.417,0,0,1-.389-.24,1.28,1.28,0,0,1-.13-.611,5.07,5.07,0,0,0-.536-2.59,2.081,2.081,0,0,0-1.943-.888h-3.7a1.347,1.347,0,0,0-.8.222,2.043,2.043,0,0,0-.592.906q-.278.684-.685,2.09l-4.477,15.725a2.316,2.316,0,0,0,.129,2.016,2.734,2.734,0,0,0,1.721.944,2.674,2.674,0,0,1,.74.222.4.4,0,0,1,.185.37q0,.222-.333.314a2.918,2.918,0,0,1-.777.093q-.925,0-1.517-.056t-1.128-.093Q205.239,37,204.462,37q-.851,0-1.517.037t-1.35.093Q200.91,37.185,199.985,37.185Zm20.757.481a.46.46,0,0,1-.333-.148.929.929,0,0,1-.222-.37,1.4,1.4,0,0,1-.074-.444,4.87,4.87,0,0,1,.13-1.11q.13-.555.352-1.369l5.217-17.871q.185-.629.37-1.387a5.3,5.3,0,0,0,.185-1.128q0-.37-.462-.555T225,12.95a3.334,3.334,0,0,1-.462-.167q-.2-.093-.2-.241a.419.419,0,0,1,.111-.278,1.342,1.342,0,0,1,.518-.277q.3-.111.833-.3t1.147-.389q.61-.2,1.11-.333a3.336,3.336,0,0,1,.684-.13,2.491,2.491,0,0,1,.407.037q.222.037.222.333a2.15,2.15,0,0,1-.055.518q-.056.222-.13.481L224.146,29.6q-.074.259.019.259t.2-.148a35.32,35.32,0,0,1,3.367-4.274,20.68,20.68,0,0,1,3.293-2.941,4.981,4.981,0,0,1,2.664-1.073,2.247,2.247,0,0,1,1.868.814,2.944,2.944,0,0,1,.647,1.887,12.956,12.956,0,0,1-.684,4,21.056,21.056,0,0,1-1.794,4.033,17.47,17.47,0,0,1-2.4,3.293,8.1,8.1,0,0,1-.666.574,7.942,7.942,0,0,1-1.036.684,9.715,9.715,0,0,1-1.2.574,3.1,3.1,0,0,1-1.128.241,1.2,1.2,0,0,1-.611-.222,2.118,2.118,0,0,1-.592-.555,1.056,1.056,0,0,1-.241-.592.936.936,0,0,1,.148-.444,1.615,1.615,0,0,1,.37-.444.7.7,0,0,1,.444-.185,1.193,1.193,0,0,1,.574.13,1.813,1.813,0,0,1,.426.314,5.2,5.2,0,0,0,.444.333.912.912,0,0,0,.518.148,1.943,1.943,0,0,0,1.332-.74,8.887,8.887,0,0,0,1.35-1.961,19.94,19.94,0,0,0,1.166-2.682,23.292,23.292,0,0,0,.832-2.942,13.235,13.235,0,0,0,.314-2.738,2.134,2.134,0,0,0-.351-1.313,1.241,1.241,0,0,0-1.055-.463,3.109,3.109,0,0,0-1.831.8,14.539,14.539,0,0,0-2.109,2.09q-1.091,1.295-2.128,2.775t-1.887,2.886q-.851,1.406-1.369,2.4l-1.387,2.664Q221.187,37.666,220.743,37.666Zm21.016-.111a2.636,2.636,0,0,1-1.572-.592,4.824,4.824,0,0,1-1.314-1.5,3.539,3.539,0,0,1-.518-1.757,11.575,11.575,0,0,1,.758-3.941,15.806,15.806,0,0,1,2.09-3.922,12.057,12.057,0,0,1,3.089-3,6.617,6.617,0,0,1,3.719-1.166,3.322,3.322,0,0,1,2.016.536,1.761,1.761,0,0,1,.721,1.5,2.993,2.993,0,0,1-.721,2,6.045,6.045,0,0,1-1.943,1.461,14.666,14.666,0,0,1-2.719,1.018q-1.5.407-3.052.7a1.578,1.578,0,0,0-.352.093.423.423,0,0,0-.2.278q-.259.814-.518,1.776a6.986,6.986,0,0,0-.259,1.813,3.416,3.416,0,0,0,.5,2,1.679,1.679,0,0,0,1.462.7,3.76,3.76,0,0,0,2.257-.666,9.267,9.267,0,0,0,1.517-1.332,1,1,0,0,1,.666-.407.327.327,0,0,1,.37.37v.13a.23.23,0,0,1-.074.167,9.035,9.035,0,0,1-1.665,2.053,6.709,6.709,0,0,1-1.98,1.258A6.024,6.024,0,0,1,241.758,37.555Zm.814-9.509a6.821,6.821,0,0,0,1.388-.241,9.886,9.886,0,0,0,2.053-.777,6.547,6.547,0,0,0,1.831-1.332,2.664,2.664,0,0,0,.758-1.905,1.365,1.365,0,0,0-.259-.833.864.864,0,0,0-.74-.351,2.959,2.959,0,0,0-1.684.648,10.6,10.6,0,0,0-1.721,1.554,13.183,13.183,0,0,0-1.35,1.757,2.823,2.823,0,0,0-.536,1.258Q242.313,28.046,242.572,28.046ZM25.456,85.111a1.04,1.04,0,0,1-.5-.13.417.417,0,0,1-.241-.388q0-.592.777-.777a3.733,3.733,0,0,0,1.757-.758,2.3,2.3,0,0,0,.463-1.646v-16.8a2.6,2.6,0,0,0-.426-1.7,3.521,3.521,0,0,0-1.72-.814q-.814-.185-.814-.777a.457.457,0,0,1,.24-.407.94.94,0,0,1,.5-.148q.851,0,1.739.037t1.739.092q.851.055,1.591.056t1.683-.037l1.924-.074q.981-.037,1.794-.037.666,0,.666.555a.554.554,0,0,1-.2.481,1.927,1.927,0,0,1-.573.259,4.361,4.361,0,0,0-1.961.925,2.335,2.335,0,0,0-.481,1.628v6.66a.454.454,0,0,0,.166.407.752.752,0,0,0,.426.111h9.768q.481,0,.481-.518V64.65a2.4,2.4,0,0,0-.462-1.628,4.2,4.2,0,0,0-1.943-.925,1.919,1.919,0,0,1-.611-.259.554.554,0,0,1-.2-.481q0-.555.7-.555.814,0,1.813.037l1.961.074q.962.037,1.7.037.7,0,1.536-.056t1.7-.092q.869-.037,1.72-.037a.912.912,0,0,1,.518.148.464.464,0,0,1,.222.407q0,.592-.777.777a3.454,3.454,0,0,0-1.757.833,2.607,2.607,0,0,0-.426,1.683V81.374a2.37,2.37,0,0,0,.463,1.684,3.683,3.683,0,0,0,1.72.758q.777.185.777.777a.422.422,0,0,1-.222.388.938.938,0,0,1-.481.13q-.777,0-1.665-.056t-1.776-.092q-.888-.037-1.628-.037t-1.683.037q-.944.037-1.943.092t-1.813.056a.746.746,0,0,1-.481-.148.493.493,0,0,1-.185-.407.548.548,0,0,1,.2-.5,2.352,2.352,0,0,1,.574-.241,4.525,4.525,0,0,0,1.924-.869,2.1,2.1,0,0,0,.518-1.573V74.455a.96.96,0,0,0-.092-.463.366.366,0,0,0-.352-.166H33.929q-.518,0-.518.592v6.919a2.089,2.089,0,0,0,.555,1.573,4.537,4.537,0,0,0,1.961.907,2.352,2.352,0,0,1,.573.241.548.548,0,0,1,.2.5.517.517,0,0,1-.167.407.732.732,0,0,1-.5.148q-.814,0-1.813-.056t-1.961-.092q-.962-.037-1.7-.037t-1.646.037q-.907.037-1.813.092T25.456,85.111Zm30.118.074a1.614,1.614,0,0,1-.684-.13.467.467,0,0,1-.278-.462.606.606,0,0,1,.24-.536,2.124,2.124,0,0,1,.648-.278,5.206,5.206,0,0,0,1.868-.925,4.014,4.014,0,0,0,1.2-1.554q.925-2.072,1.739-4.089t1.591-4q.777-1.979,1.554-4.033t1.554-4.163a19.1,19.1,0,0,0,.7-2.2,3.634,3.634,0,0,1,.222-.8q.666-.185,1.258-.333a10.547,10.547,0,0,0,1.258-.407,3.742,3.742,0,0,0,1.128-.666q.463-.407.685-.629a.625.625,0,0,1,.3-.129q.148-.018.3.24.111.222.2.463a4.621,4.621,0,0,1,.167.536q.777,2.479,1.591,5.05t1.646,5.125l1.646,5.05q.814,2.5,1.591,4.866a3.269,3.269,0,0,0,.684,1.258,3.513,3.513,0,0,0,1.055.814,8.333,8.333,0,0,0,1.332.518,2.124,2.124,0,0,1,.647.278.567.567,0,0,1,.241.5.464.464,0,0,1-.222.407.912.912,0,0,1-.518.148q-.74,0-1.832-.056t-2.2-.092q-1.11-.037-1.961-.037-.7,0-1.721.037l-2.053.074q-1.036.037-1.776.037a1.193,1.193,0,0,1-.574-.129.417.417,0,0,1-.24-.389.6.6,0,0,1,.259-.518,1.612,1.612,0,0,1,.629-.259,5.162,5.162,0,0,0,2-.777,1.3,1.3,0,0,0,.407-1.443q-.148-.7-.37-1.48t-.425-1.573q-.2-.8-.425-1.535a1.261,1.261,0,0,0-.185-.444A.532.532,0,0,0,70,76.379H63.455a.55.55,0,0,0-.407.148.972.972,0,0,0-.222.481q-.148.518-.333,1.036t-.352,1.036q-.167.518-.314,1.036t-.3,1a1.915,1.915,0,0,0,.222,1.7,3.836,3.836,0,0,0,2.072.962q.888.185.888.777a.43.43,0,0,1-.2.389,1.243,1.243,0,0,1-.648.129q-1.073,0-2-.055t-2.035-.056a19.116,19.116,0,0,0-2.109.111A19.478,19.478,0,0,1,55.574,85.185Zm8.917-10.8H69.3q.555,0,.555-.259a.778.778,0,0,0-.019-.185q-.019-.074-.056-.185L67.3,65.39q-.111-.407-.222-.407-.074,0-.259.407L63.9,73.752a.657.657,0,0,0-.074.3.265.265,0,0,0,.2.259A1.348,1.348,0,0,0,64.491,74.381Zm32.19,11.137a16.427,16.427,0,0,1-5.4-.869,13.946,13.946,0,0,1-4.44-2.479,11.325,11.325,0,0,1-3-3.867,11.485,11.485,0,0,1-1.073-5,11.951,11.951,0,0,1,1.018-4.865,12.183,12.183,0,0,1,2.979-4.107,14.656,14.656,0,0,1,4.717-2.849A18.44,18.44,0,0,1,100.1,60.6a19.983,19.983,0,0,1,2.331.462q1.129.3,2.053.629a1.883,1.883,0,0,1,.574.388,1.057,1.057,0,0,1,.277.685q.148,1.221.222,2.368t.074,2.072a.562.562,0,0,1-.3.555.786.786,0,0,1-.647.019.845.845,0,0,1-.5-.574q-.259-.851-.611-1.7a4.03,4.03,0,0,0-1.054-1.48,5.567,5.567,0,0,0-2.054-1.221,9.228,9.228,0,0,0-3.163-.481,7.192,7.192,0,0,0-3.423.814,8.1,8.1,0,0,0-2.627,2.22,10.619,10.619,0,0,0-1.684,3.182,11.623,11.623,0,0,0-.592,3.7,18.815,18.815,0,0,0,.518,4.533,10.592,10.592,0,0,0,1.591,3.607,7.758,7.758,0,0,0,2.627,2.368,7.512,7.512,0,0,0,3.663.851,7.709,7.709,0,0,0,4.44-1.166,8.756,8.756,0,0,0,2.849-3.57q.3-.666.833-.629t.536.629a8.917,8.917,0,0,1-.092,1.165q-.093.685-.278,1.462t-.444,1.591a1.723,1.723,0,0,1-.388.685,2.325,2.325,0,0,1-.61.425,16.8,16.8,0,0,1-3.33.962A22.374,22.374,0,0,1,96.681,85.518Zm14.06-.3a1.426,1.426,0,0,1-.7-.185.528.528,0,0,1-.333-.444q0-.592.962-.777a3.627,3.627,0,0,0,1.85-.777,2.448,2.448,0,0,0,.444-1.665V64.613a2.319,2.319,0,0,0-.5-1.7,4.385,4.385,0,0,0-1.979-.814q-.777-.185-.777-.777a.457.457,0,0,1,.241-.407.94.94,0,0,1,.5-.148q.851,0,1.795.037t1.85.092q.906.055,1.646.056t1.665-.037l1.906-.074q.98-.037,1.794-.037a.821.821,0,0,1,.481.129.443.443,0,0,1,.185.389.6.6,0,0,1-.2.518,1.919,1.919,0,0,1-.61.259,3.9,3.9,0,0,0-1.906.925,2.547,2.547,0,0,0-.425,1.628v7.511a.736.736,0,0,0,.111.444.32.32,0,0,0,.259.148.7.7,0,0,0,.407-.166q.222-.167.518-.425l7.1-7.659q.3-.333.5-.611a.914.914,0,0,0,.2-.536q0-.777-1.517-1.11a1.483,1.483,0,0,1-.611-.3.665.665,0,0,1-.2-.518.417.417,0,0,1,.24-.388,1.04,1.04,0,0,1,.5-.13h2.553q1.258,0,2.442-.018t2.4-.056q1.221-.037,2.479-.037a1.645,1.645,0,0,1,.666.129.417.417,0,0,1,.3.389.558.558,0,0,1-.37.536,3.45,3.45,0,0,1-.74.241,12.762,12.762,0,0,0-3.238.851,10.677,10.677,0,0,0-2.46,1.443,27.175,27.175,0,0,0-2.146,1.832q-1.036.98-2.072,2.035t-2.183,2.128q-.518.481.037,1.11l8.843,9.916q.518.555,1.018,1a5.33,5.33,0,0,0,1.165.777,10.744,10.744,0,0,0,1.628.629,7.17,7.17,0,0,1,.777.259.5.5,0,0,1,.37.481q0,.259-.37.444a2.359,2.359,0,0,1-1.036.185q-1.11,0-2.2-.074t-2.165-.13q-1.073-.055-2.257-.055-1.221,0-2.276.092t-2.349.092a.94.94,0,0,1-.5-.148.457.457,0,0,1-.241-.407q0-.592.74-.777,1.48-.3,1.554-1a1.1,1.1,0,0,0-.167-.574,6.085,6.085,0,0,0-.463-.647l-6.031-6.993a2.548,2.548,0,0,0-.481-.444.751.751,0,0,0-.407-.148.273.273,0,0,0-.241.167.96.96,0,0,0-.092.462q0,1.665.019,3.293t.092,3.4a4.847,4.847,0,0,0,.185,1.147,1.441,1.441,0,0,0,.574.777,5.287,5.287,0,0,0,1.387.592,3.835,3.835,0,0,1,.7.259.5.5,0,0,1,.3.481q0,.259-.333.425a1.631,1.631,0,0,1-.74.167q-1.147,0-2-.074t-1.554-.148a13.42,13.42,0,0,0-1.406-.074,11.348,11.348,0,0,0-1.48.093q-.7.093-1.535.185A19.5,19.5,0,0,1,110.741,85.222Zm29.156-.037a.883.883,0,0,1-.574-.166.491.491,0,0,1-.2-.389q0-.555.814-.777a4.849,4.849,0,0,0,1.794-.777,2.031,2.031,0,0,0,.536-1.628V64.613a2.462,2.462,0,0,0-.481-1.7,3.55,3.55,0,0,0-1.813-.814,1.288,1.288,0,0,1-.666-.314.669.669,0,0,1-.185-.463.48.48,0,0,1,.222-.389.963.963,0,0,1,.592-.167q.925,0,1.887.037t1.887.092q.925.055,1.776.056,1.924,0,4.107-.037t3.885-.074a12.27,12.27,0,0,0,1.961-.129q.777-.13.925-.13a1.244,1.244,0,0,1,.574.166.641.641,0,0,1,.352.537q.148,1.332.37,2.59a12.959,12.959,0,0,1,.222,2.22.809.809,0,0,1-.148.518.424.424,0,0,1-.333.185.668.668,0,0,1-.389-.148.936.936,0,0,1-.314-.444q-.37-.925-.666-1.591a4,4,0,0,0-.666-1.073,6.34,6.34,0,0,0-1.073-.777,3.1,3.1,0,0,0-1.591-.37h-2.775a2.345,2.345,0,0,0-1.406.426,1.394,1.394,0,0,0-.592,1.2v6.993a.829.829,0,0,0,.259.666.987.987,0,0,0,.666.222h3.256a1.536,1.536,0,0,0,1.387-.647,7.474,7.474,0,0,0,.758-1.573q.259-.7.74-.7a.416.416,0,0,1,.333.2.894.894,0,0,1,.111.61q-.037.444-.074.962t-.055,1.036q-.019.518-.019,1,0,.444.019.962l.037,1.036q.018.518.055,1a1.435,1.435,0,0,1-.037.758.356.356,0,0,1-.333.241q-.592,0-.851-.962a6.221,6.221,0,0,0-.74-1.7,1.312,1.312,0,0,0-1.147-.592h-3.441a1.03,1.03,0,0,0-.684.2.8.8,0,0,0-.24.647v7.03a2.055,2.055,0,0,0,.481,1.554,2.124,2.124,0,0,0,1.48.444h3.182a6.386,6.386,0,0,0,1.554-.185,3.028,3.028,0,0,0,1.258-.629,5.9,5.9,0,0,0,1.147-1.295,15.469,15.469,0,0,0,.962-1.665.9.9,0,0,1,.314-.352.787.787,0,0,1,.389-.092.3.3,0,0,1,.277.222,1.238,1.238,0,0,1,.092.481,6.125,6.125,0,0,1-.185,1.406q-.185.777-.463,1.646t-.536,1.72a.557.557,0,0,1-.314.37,1.179,1.179,0,0,1-.5.111q-.481,0-1.794-.019t-3.09-.056q-1.776-.037-3.663-.055T145,85q-.74,0-1.628.037t-1.794.092Q140.675,85.185,139.9,85.185Zm35,.074q-1.258,0-2.757-.074t-2.794-.13Q168.054,85,167.388,85q-.74,0-1.628.019t-1.831.055q-.943.037-1.794.037a.938.938,0,0,1-.481-.13.422.422,0,0,1-.222-.388.665.665,0,0,1,.2-.518,1.18,1.18,0,0,1,.573-.259,4.362,4.362,0,0,0,1.924-.758,2.139,2.139,0,0,0,.518-1.646v-16.8a2.388,2.388,0,0,0-.481-1.683,4.08,4.08,0,0,0-1.961-.833,1.18,1.18,0,0,1-.573-.259.665.665,0,0,1-.2-.518.464.464,0,0,1,.222-.407.85.85,0,0,1,.481-.148q.851,0,1.794.037t1.85.092q.906.055,1.646.056.592,0,1.554-.056t2.09-.111q1.129-.056,2.183-.111t1.72-.056a15.077,15.077,0,0,1,5.2.869,12.7,12.7,0,0,1,4.181,2.479,11.274,11.274,0,0,1,3.793,8.6,12.964,12.964,0,0,1-.888,4.755,12.432,12.432,0,0,1-2.59,4.07,12.191,12.191,0,0,1-4.144,2.83A14.3,14.3,0,0,1,174.9,85.259Zm-.555-1.887a6.974,6.974,0,0,0,4.218-1.24,7.34,7.34,0,0,0,2.535-3.441,14.449,14.449,0,0,0,.833-5.124,17.484,17.484,0,0,0-.536-4.5,10.739,10.739,0,0,0-1.554-3.46,6.968,6.968,0,0,0-5.9-3.034q-1.184,0-1.979.074a2.431,2.431,0,0,0-1.2.37,1.109,1.109,0,0,0-.407.962V80.116a3.469,3.469,0,0,0,.463,1.924,2.592,2.592,0,0,0,1.369,1.018A6.626,6.626,0,0,0,174.344,83.372Zm29.008,1.739a1.04,1.04,0,0,1-.5-.13.417.417,0,0,1-.24-.388q0-.592.777-.777a3.733,3.733,0,0,0,1.758-.758,2.3,2.3,0,0,0,.462-1.646v-16.8a2.6,2.6,0,0,0-.425-1.7,3.521,3.521,0,0,0-1.721-.814q-.814-.185-.814-.777a.457.457,0,0,1,.24-.407.94.94,0,0,1,.5-.148q.851,0,1.739.037t1.739.092q.851.055,1.591.056t1.684-.037l1.924-.074q.981-.037,1.795-.037.666,0,.666.555a.554.554,0,0,1-.2.481,1.927,1.927,0,0,1-.574.259,4.361,4.361,0,0,0-1.961.925,2.335,2.335,0,0,0-.481,1.628v6.66a.454.454,0,0,0,.167.407.752.752,0,0,0,.426.111h9.768q.481,0,.481-.518V64.65a2.4,2.4,0,0,0-.462-1.628,4.2,4.2,0,0,0-1.943-.925,1.919,1.919,0,0,1-.611-.259.554.554,0,0,1-.2-.481q0-.555.7-.555.814,0,1.813.037l1.961.074q.962.037,1.7.037.7,0,1.535-.056t1.7-.092q.869-.037,1.721-.037a.912.912,0,0,1,.518.148.464.464,0,0,1,.222.407q0,.592-.777.777a3.454,3.454,0,0,0-1.757.833,2.607,2.607,0,0,0-.426,1.683V81.374a2.37,2.37,0,0,0,.463,1.684,3.683,3.683,0,0,0,1.72.758q.777.185.777.777a.422.422,0,0,1-.222.388.938.938,0,0,1-.481.13q-.777,0-1.665-.056t-1.776-.092q-.888-.037-1.628-.037t-1.684.037q-.943.037-1.943.092t-1.813.056a.746.746,0,0,1-.481-.148.493.493,0,0,1-.185-.407.548.548,0,0,1,.2-.5,2.352,2.352,0,0,1,.574-.241,4.525,4.525,0,0,0,1.924-.869,2.1,2.1,0,0,0,.518-1.573V74.455a.96.96,0,0,0-.092-.463.366.366,0,0,0-.352-.166h-9.879q-.518,0-.518.592v6.919a2.089,2.089,0,0,0,.555,1.573,4.537,4.537,0,0,0,1.961.907,2.352,2.352,0,0,1,.574.241.548.548,0,0,1,.2.5.517.517,0,0,1-.166.407.732.732,0,0,1-.5.148q-.814,0-1.813-.056t-1.961-.092q-.962-.037-1.7-.037t-1.646.037q-.906.037-1.813.092T203.352,85.111Zm43.179.407a13.71,13.71,0,0,1-4.865-.869,12.88,12.88,0,0,1-4.107-2.479,11.5,11.5,0,0,1-2.812-3.848,11.889,11.889,0,0,1-1.018-4.977,14.146,14.146,0,0,1,.833-4.828,11.934,11.934,0,0,1,6.623-7.012,14.1,14.1,0,0,1,5.68-1.073,13.814,13.814,0,0,1,4.9.869,12.661,12.661,0,0,1,4.089,2.479,11.846,11.846,0,0,1,2.812,3.848A11.707,11.707,0,0,1,259.7,72.6a13.92,13.92,0,0,1-.851,4.81,12.3,12.3,0,0,1-2.516,4.144,12.057,12.057,0,0,1-4.125,2.886A14.1,14.1,0,0,1,246.531,85.518Zm.666-1.7a5.342,5.342,0,0,0,3.533-1.184,7.059,7.059,0,0,0,2.128-3.293,15.315,15.315,0,0,0,.7-4.847,23.44,23.44,0,0,0-.426-4.458,14.94,14.94,0,0,0-1.332-3.978,8.018,8.018,0,0,0-2.312-2.831,5.393,5.393,0,0,0-3.33-1.054,5.288,5.288,0,0,0-3.5,1.184,7.064,7.064,0,0,0-2.128,3.256,14.97,14.97,0,0,0-.7,4.81,22.682,22.682,0,0,0,.444,4.5,15.873,15.873,0,0,0,1.332,3.977,8.114,8.114,0,0,0,2.275,2.849A5.253,5.253,0,0,0,247.2,83.816Zm29.489,1.7a14.329,14.329,0,0,1-5.014-.869,12.62,12.62,0,0,1-4.144-2.5,11.526,11.526,0,0,1-2.794-3.848,11.857,11.857,0,0,1-1-4.921,12.471,12.471,0,0,1,.98-4.884,12.726,12.726,0,0,1,2.812-4.144,13.361,13.361,0,0,1,4.421-2.867,15.075,15.075,0,0,1,5.735-1.055,16.779,16.779,0,0,1,1.794.111q1.018.111,2.091.3t2.016.425a10.23,10.23,0,0,1,1.536.5,1.193,1.193,0,0,1,.518.314.973.973,0,0,1,.222.574q.185,1.295.314,2.442a17.658,17.658,0,0,1,.13,1.924.807.807,0,0,1-.167.555.59.59,0,0,1-.462.185.84.84,0,0,1-.648-.222,2.039,2.039,0,0,1-.351-.555q-.333-.7-.759-1.462a7.047,7.047,0,0,0-1.017-1.387,6.889,6.889,0,0,0-1.055-.851,5.435,5.435,0,0,0-1.5-.666,7.741,7.741,0,0,0-2.146-.259,7.389,7.389,0,0,0-6.161,3.052,10.337,10.337,0,0,0-1.591,3.219,13.172,13.172,0,0,0-.536,3.792,19.887,19.887,0,0,0,.481,4.533,11.629,11.629,0,0,0,1.406,3.534,6.632,6.632,0,0,0,2.294,2.275,6.219,6.219,0,0,0,3.182.8,3.268,3.268,0,0,0,1.573-.333,10.646,10.646,0,0,0,.98-.592,2.124,2.124,0,0,0,.611-.944,4.175,4.175,0,0,0,.241-1.462,8.889,8.889,0,0,0,.037-.925q0-.592.018-1.184t.018-.925a1.749,1.749,0,0,0-.166-.758,1.11,1.11,0,0,0-.648-.536,3.336,3.336,0,0,0-.758-.37,7.327,7.327,0,0,0-.851-.241l-.758-.166a1.249,1.249,0,0,1-.592-.259.67.67,0,0,1-.3-.555.452.452,0,0,1,.259-.407,1.036,1.036,0,0,1,.518-.148q.851,0,1.868.037t2.017.092q1,.055,1.776.055,1.073,0,2.276-.074t2.313-.074a.755.755,0,0,1,.444.13.483.483,0,0,1,.185.425.654.654,0,0,1-.2.536,1.269,1.269,0,0,1-.536.241,2.858,2.858,0,0,0-1.406.666,2.36,2.36,0,0,0-.518,1.147q-.148.814-.2,1.424t-.056,1.351v1.184a.592.592,0,0,0,.148.37,4.509,4.509,0,0,0,.333.37,3.368,3.368,0,0,1,.259.37.776.776,0,0,1,.111.407.885.885,0,0,1-.148.462.772.772,0,0,1-.555.314,4.187,4.187,0,0,0-1.036.389q-.74.352-1.85.814a15.539,15.539,0,0,1-2.627.8A15.733,15.733,0,0,1,276.686,85.518Zm26.307.111a.474.474,0,0,1-.444-.3l-.333-.666L292.892,64.5a6.468,6.468,0,0,0-.925-1.5,2.911,2.911,0,0,0-1.591-.869q-.37-.148-.721-.3a.523.523,0,0,1-.352-.518q0-.259.333-.389a1.738,1.738,0,0,1,.629-.129q1.11,0,2.5.074t2.423.074q1.11,0,2.257-.074T299.7,60.8a2.1,2.1,0,0,1,.8.129.421.421,0,0,1,.314.389.539.539,0,0,1-.3.5,3.019,3.019,0,0,1-.888.278q-.592.148-.7.444a2,2,0,0,0-.111.7,3.182,3.182,0,0,0,.074.592q.074.37.111.481.74,1.739,1.48,3.423t1.443,3.367q.7,1.684,1.443,3.367t1.443,3.459q.185.407.3.444t.333-.407l2.035-3.848a3.047,3.047,0,0,0,.167-.389.919.919,0,0,0,0-.629l-.129-.388-3.811-8.1a4.065,4.065,0,0,0-1.11-1.573,4.205,4.205,0,0,0-1.85-.906,4.05,4.05,0,0,1-.611-.3.559.559,0,0,1-.241-.518.422.422,0,0,1,.222-.389,1.009,1.009,0,0,1,.518-.129q.74,0,1.7.037l1.906.074q.943.037,1.646.037,1.073,0,2.2-.074t2.238-.074a2.5,2.5,0,0,1,.888.129q.333.129.333.389a.508.508,0,0,1-.185.389,1.471,1.471,0,0,1-.5.277q-.314.111-.647.259-.666.148-.758.518a1.442,1.442,0,0,0,.055.814q.148.333.352.944t.481,1.295q.277.685.518,1.313t.389,1q.259.555.388.444a1.31,1.31,0,0,0,.277-.444q.259-.518.592-1.351t.629-1.646l.444-1.221a1.3,1.3,0,0,0,.185-.7.828.828,0,0,0-.462-.8q-.462-.24-.906-.444a.653.653,0,0,1-.444-.61.542.542,0,0,1,.129-.37q.13-.148.721-.148a9.57,9.57,0,0,1,1.314.056,4.988,4.988,0,0,0,.832.056q.592-.037,1.11-.111a12.353,12.353,0,0,1,1.591-.074,2.137,2.137,0,0,1,.777.13.466.466,0,0,1,.333.463.491.491,0,0,1-.314.5q-.315.13-.685.241a3.228,3.228,0,0,0-1.665.888,7.334,7.334,0,0,0-.962,1.443q-.37.7-.814,1.591t-.87,1.813q-.425.925-.832,1.739a1.927,1.927,0,0,0-.148.907,3.376,3.376,0,0,0,.222.943l2.849,6.549q.111.333.241.241a.608.608,0,0,0,.2-.315q1.406-3.145,2.775-6.549t2.442-6.29a7.308,7.308,0,0,0,.425-1.276,1.632,1.632,0,0,0,.019-.537,1.206,1.206,0,0,0-.3-.7,1.354,1.354,0,0,0-.74-.407,5.332,5.332,0,0,1-.759-.3.571.571,0,0,1-.388-.518q0-.259.333-.37a2.33,2.33,0,0,1,.74-.111,15.155,15.155,0,0,1,1.573.056,5.5,5.5,0,0,0,1.017.018q.592-.037,1.221-.111a14.887,14.887,0,0,1,1.665-.074,3.115,3.115,0,0,1,.888.111.464.464,0,0,1,.37.481.477.477,0,0,1-.389.463q-.389.129-.758.277a3.305,3.305,0,0,0-1.3.592,3.922,3.922,0,0,0-.851.906,7.073,7.073,0,0,0-.592,1.092l-8.621,20.2a1.328,1.328,0,0,1-.3.481.606.606,0,0,1-.444.185.763.763,0,0,1-.5-.166,1.628,1.628,0,0,1-.388-.536q-.407-.925-1-2.146t-1.369-2.9q-.777-1.684-1.813-3.978-.111-.259-.259-.222a.439.439,0,0,0-.259.259q-.74,1.48-1.517,2.96t-1.554,2.979q-.777,1.5-1.554,2.979a3.729,3.729,0,0,1-.314.629A.554.554,0,0,1,302.993,85.629Zm20.868-.444a1.614,1.614,0,0,1-.685-.13.467.467,0,0,1-.277-.462.606.606,0,0,1,.241-.536,2.124,2.124,0,0,1,.647-.278,5.206,5.206,0,0,0,1.868-.925,4.014,4.014,0,0,0,1.2-1.554q.925-2.072,1.739-4.089t1.591-4q.777-1.979,1.554-4.033T333.3,65.02a19.1,19.1,0,0,0,.7-2.2,3.633,3.633,0,0,1,.222-.8q.666-.185,1.258-.333a10.548,10.548,0,0,0,1.258-.407,3.742,3.742,0,0,0,1.129-.666q.462-.407.684-.629a.625.625,0,0,1,.3-.129q.148-.018.3.24.111.222.2.463a4.621,4.621,0,0,1,.167.536q.777,2.479,1.591,5.05t1.647,5.125l1.646,5.05q.814,2.5,1.591,4.866a3.268,3.268,0,0,0,.685,1.258,3.513,3.513,0,0,0,1.054.814,8.334,8.334,0,0,0,1.332.518,2.125,2.125,0,0,1,.648.278.567.567,0,0,1,.24.5.464.464,0,0,1-.222.407.912.912,0,0,1-.518.148q-.74,0-1.831-.056t-2.2-.092q-1.11-.037-1.961-.037-.7,0-1.721.037l-2.053.074q-1.036.037-1.776.037a1.193,1.193,0,0,1-.573-.129.417.417,0,0,1-.241-.389.6.6,0,0,1,.259-.518,1.612,1.612,0,0,1,.629-.259,5.163,5.163,0,0,0,2-.777,1.3,1.3,0,0,0,.407-1.443q-.148-.7-.37-1.48t-.426-1.573q-.2-.8-.426-1.535a1.261,1.261,0,0,0-.185-.444.532.532,0,0,0-.444-.148h-6.549a.55.55,0,0,0-.407.148.972.972,0,0,0-.222.481q-.148.518-.333,1.036t-.352,1.036q-.166.518-.315,1.036t-.3,1a1.915,1.915,0,0,0,.222,1.7,3.836,3.836,0,0,0,2.072.962q.888.185.888.777a.43.43,0,0,1-.2.389,1.243,1.243,0,0,1-.648.129q-1.073,0-2-.055t-2.035-.056a19.117,19.117,0,0,0-2.109.111A19.478,19.478,0,0,1,323.861,85.185Zm8.917-10.8h4.81q.555,0,.555-.259a.779.779,0,0,0-.018-.185q-.019-.074-.056-.185L335.59,65.39q-.111-.407-.222-.407-.074,0-.259.407l-2.923,8.362a.657.657,0,0,0-.074.3.265.265,0,0,0,.2.259A1.348,1.348,0,0,0,332.778,74.381Zm41.44,11.4a9.529,9.529,0,0,1-3.182-.463,7.13,7.13,0,0,1-2.2-1.221,9.684,9.684,0,0,1-1.609-1.72q-.814-1.073-1.573-2.146t-1.5-2.331q-.74-1.258-1.554-2.886a2.318,2.318,0,0,0-1-1.147,1.977,1.977,0,0,0-.666-.3,2.765,2.765,0,0,0-.592-.074.332.332,0,0,0-.3.2,1.119,1.119,0,0,0-.111.536V81.3a2.036,2.036,0,0,0,.629,1.665,5.312,5.312,0,0,0,2.183.851,1.342,1.342,0,0,1,.611.241.608.608,0,0,1,.2.5.493.493,0,0,1-.185.407.809.809,0,0,1-.518.148q-.814,0-1.868-.056t-2.091-.092q-1.036-.037-1.776-.037-.777,0-1.7.037t-1.905.092q-.98.056-1.795.056a1.009,1.009,0,0,1-.518-.13.422.422,0,0,1-.222-.388q0-.592.777-.777a4.527,4.527,0,0,0,1.943-.758,2.15,2.15,0,0,0,.536-1.684V64.761a4.754,4.754,0,0,0-.167-1.406,1.379,1.379,0,0,0-.647-.8,4.778,4.778,0,0,0-1.406-.463,1.288,1.288,0,0,1-.666-.314.669.669,0,0,1-.185-.463.48.48,0,0,1,.222-.389.963.963,0,0,1,.592-.167q1.184,0,1.943.074t1.443.129q.684.056,1.609.056a10.714,10.714,0,0,0,1.5-.093q.648-.092,1.48-.167t2.128-.074a12.456,12.456,0,0,1,6.66,1.48,4.945,4.945,0,0,1,2.331,4.477,5.086,5.086,0,0,1-.721,2.793,6.177,6.177,0,0,1-1.813,1.85,9.376,9.376,0,0,1-2.2,1.091q-.148.037-.13.166a.916.916,0,0,0,.092.277q1.11,1.628,2.165,3.164t2.164,2.849a28.771,28.771,0,0,0,2.294,2.424,4.888,4.888,0,0,0,2.572,1.387,17.015,17.015,0,0,0,2.608.2q.555,0,.555.666a1.658,1.658,0,0,1-.573,1.314,3.517,3.517,0,0,1-1.573.721A10.639,10.639,0,0,1,374.218,85.777ZM361.342,72.309a4.055,4.055,0,0,0,2.331-.629,3.957,3.957,0,0,0,1.406-1.72,6.138,6.138,0,0,0,.481-2.5,7.942,7.942,0,0,0-.444-2.849,3.453,3.453,0,0,0-1.332-1.72,4.161,4.161,0,0,0-2.294-.574,1.222,1.222,0,0,0-1.165.647,6.849,6.849,0,0,0-.352,2.757q-.037.851-.037,2.146V70.94a1.283,1.283,0,0,0,.388,1.054A1.567,1.567,0,0,0,361.342,72.309Zm22.163,12.8a1.39,1.39,0,0,1-.555-.13.417.417,0,0,1-.3-.388.6.6,0,0,1,.259-.518,1.612,1.612,0,0,1,.629-.259,5.4,5.4,0,0,0,2.053-.777,1.944,1.944,0,0,0,.647-1.665V66.093q0-1.443-.074-2.128a2.87,2.87,0,0,0-.2-.925.645.645,0,0,0-.314-.314,1.924,1.924,0,0,0-.87-.2q-.536-.018-.87-.018H383.1a4.616,4.616,0,0,0-2.238.573,5.052,5.052,0,0,0-1.684,1.424q-.185.259-.536.721a5.939,5.939,0,0,1-.74.814,1.152,1.152,0,0,1-.759.352.422.422,0,0,1-.407-.2.95.95,0,0,1-.111-.463,2.2,2.2,0,0,1,.222-.925,19.009,19.009,0,0,0,1.036-2.405,9.961,9.961,0,0,0,.444-2.294,1.12,1.12,0,0,1,.333-.758.932.932,0,0,1,.592-.2q.259,0,.555.481a3.447,3.447,0,0,0,.629.777,2.785,2.785,0,0,0,1.24.444,8.838,8.838,0,0,0,1.424.148H397.01a5.789,5.789,0,0,0,1.572-.185,4.863,4.863,0,0,0,.98-.37,3.492,3.492,0,0,0,.944-.74,1.068,1.068,0,0,1,.832-.407.33.33,0,0,1,.315.167.96.96,0,0,1,.092.463q0,.148-.018.37a3.621,3.621,0,0,1-.056.407q-.185.7-.37,1.35t-.3,1.24A6.612,6.612,0,0,0,400.9,64.5v.74a2.97,2.97,0,0,1-.129.962.494.494,0,0,1-.5.37.647.647,0,0,1-.555-.351,5.528,5.528,0,0,1-.481-1.129A3.211,3.211,0,0,0,395.6,62.5H393.68a1.712,1.712,0,0,0-1.017.278,1.8,1.8,0,0,0-.574,1.11,12.7,12.7,0,0,0-.185,2.535V81.337a1.962,1.962,0,0,0,.611,1.61,5.516,5.516,0,0,0,2.053.869,3.022,3.022,0,0,1,.629.259.512.512,0,0,1,.259.481.464.464,0,0,1-.222.407.979.979,0,0,1-.555.148q-.814,0-1.831-.056t-2.035-.092q-1.018-.037-1.758-.037-.777,0-1.758.037t-1.961.092Q384.356,85.111,383.505,85.111Zm27.306.407a12.615,12.615,0,0,1-3.071-.37,9.523,9.523,0,0,1-2.775-1.184q-.222-.185-.444-.407a1.537,1.537,0,0,1-.333-.481,9.553,9.553,0,0,1-.5-2.442,25.539,25.539,0,0,1-.092-2.923.383.383,0,0,1,.222-.37,1.145,1.145,0,0,1,.518-.111.931.931,0,0,1,.5.092,1.114,1.114,0,0,1,.277.352,10.825,10.825,0,0,0,2.423,4.477,5.016,5.016,0,0,0,3.755,1.7,3.286,3.286,0,0,0,1.943-.536,3.575,3.575,0,0,0,1.165-1.369,3.8,3.8,0,0,0,.407-1.684,3.99,3.99,0,0,0-.462-2,4.734,4.734,0,0,0-1.388-1.48,21.842,21.842,0,0,0-2.368-1.443q-1.554-.888-3-1.868a8.55,8.55,0,0,1-2.368-2.387,6.266,6.266,0,0,1-.925-3.515,6.353,6.353,0,0,1,1.129-3.774,7.465,7.465,0,0,1,3.089-2.479,10.557,10.557,0,0,1,4.4-.888,11.842,11.842,0,0,1,2.682.3,16.317,16.317,0,0,1,2.053.592,1.83,1.83,0,0,1,.647.407,1.908,1.908,0,0,1,.352.777,16.612,16.612,0,0,1,.315,1.887,21.172,21.172,0,0,1,.129,2.442q0,.481-.666.481a1.164,1.164,0,0,1-.611-.167.731.731,0,0,1-.352-.425,7.206,7.206,0,0,0-1.85-3.367,4.213,4.213,0,0,0-3-1.147,4.363,4.363,0,0,0-1.887.37,2.484,2.484,0,0,0-1.165,1.11,3.952,3.952,0,0,0-.388,1.85,2.573,2.573,0,0,0,.611,1.647,8.012,8.012,0,0,0,1.757,1.535q1.147.777,2.627,1.665a17.171,17.171,0,0,1,3.182,2.331,7.386,7.386,0,0,1,1.72,2.423,8.462,8.462,0,0,1-.555,7.123,6.427,6.427,0,0,1-3.071,2.461A12.408,12.408,0,0,1,410.811,85.518Zm-316.239,48a12.615,12.615,0,0,1-3.071-.37,9.522,9.522,0,0,1-2.775-1.184q-.222-.185-.444-.407a1.536,1.536,0,0,1-.333-.481,9.554,9.554,0,0,1-.5-2.442,25.537,25.537,0,0,1-.092-2.923.383.383,0,0,1,.222-.37,1.144,1.144,0,0,1,.518-.111.931.931,0,0,1,.5.092,1.114,1.114,0,0,1,.277.352,10.825,10.825,0,0,0,2.424,4.477,5.016,5.016,0,0,0,3.756,1.7A3.286,3.286,0,0,0,97,131.316a3.575,3.575,0,0,0,1.166-1.369,3.8,3.8,0,0,0,.407-1.683,3.99,3.99,0,0,0-.463-2,4.734,4.734,0,0,0-1.387-1.48,21.844,21.844,0,0,0-2.368-1.443q-1.554-.888-3-1.868a8.55,8.55,0,0,1-2.368-2.387,6.266,6.266,0,0,1-.925-3.515,6.353,6.353,0,0,1,1.128-3.774,7.465,7.465,0,0,1,3.09-2.479,10.557,10.557,0,0,1,4.4-.888,11.843,11.843,0,0,1,2.683.3,16.314,16.314,0,0,1,2.053.592,1.83,1.83,0,0,1,.647.407,1.909,1.909,0,0,1,.352.777,16.608,16.608,0,0,1,.314,1.887,21.172,21.172,0,0,1,.13,2.442q0,.481-.666.481a1.164,1.164,0,0,1-.61-.167.731.731,0,0,1-.352-.425,7.206,7.206,0,0,0-1.85-3.367,4.213,4.213,0,0,0-3-1.147,4.363,4.363,0,0,0-1.887.37,2.484,2.484,0,0,0-1.165,1.11,3.952,3.952,0,0,0-.389,1.85,2.573,2.573,0,0,0,.611,1.647,8.011,8.011,0,0,0,1.757,1.535q1.147.777,2.627,1.665a17.171,17.171,0,0,1,3.182,2.331,7.386,7.386,0,0,1,1.72,2.423,8.462,8.462,0,0,1-.555,7.122,6.427,6.427,0,0,1-3.071,2.461A12.408,12.408,0,0,1,94.572,133.518Zm18.907-.407a1.39,1.39,0,0,1-.555-.129.417.417,0,0,1-.3-.389.6.6,0,0,1,.259-.518,1.612,1.612,0,0,1,.629-.259,5.4,5.4,0,0,0,2.054-.777,1.944,1.944,0,0,0,.647-1.665V114.093q0-1.443-.074-2.128a2.87,2.87,0,0,0-.2-.925.645.645,0,0,0-.315-.314,1.924,1.924,0,0,0-.869-.2q-.536-.019-.869-.019h-.814a4.616,4.616,0,0,0-2.238.574,5.052,5.052,0,0,0-1.684,1.424q-.185.259-.536.721a5.939,5.939,0,0,1-.74.814,1.152,1.152,0,0,1-.758.352.422.422,0,0,1-.407-.2.95.95,0,0,1-.111-.463,2.2,2.2,0,0,1,.222-.925,19.011,19.011,0,0,0,1.036-2.405,9.962,9.962,0,0,0,.444-2.294,1.12,1.12,0,0,1,.333-.758.932.932,0,0,1,.592-.2q.259,0,.555.481a3.448,3.448,0,0,0,.629.777,2.785,2.785,0,0,0,1.239.444,8.838,8.838,0,0,0,1.424.148h13.912a5.789,5.789,0,0,0,1.572-.185,4.862,4.862,0,0,0,.981-.37,3.492,3.492,0,0,0,.943-.74,1.068,1.068,0,0,1,.833-.407.33.33,0,0,1,.314.166.96.96,0,0,1,.093.463q0,.148-.019.37a3.611,3.611,0,0,1-.055.407q-.185.7-.37,1.35t-.3,1.24a6.612,6.612,0,0,0-.111,1.221v.74a2.97,2.97,0,0,1-.13.962.494.494,0,0,1-.5.37.647.647,0,0,1-.555-.351,5.529,5.529,0,0,1-.481-1.129,3.211,3.211,0,0,0-3.626-2.59h-1.924a1.712,1.712,0,0,0-1.017.278,1.8,1.8,0,0,0-.574,1.11,12.7,12.7,0,0,0-.185,2.535v14.911a1.962,1.962,0,0,0,.611,1.609,5.516,5.516,0,0,0,2.053.869,3.023,3.023,0,0,1,.629.259.512.512,0,0,1,.259.481.464.464,0,0,1-.222.407.979.979,0,0,1-.555.148q-.814,0-1.832-.055t-2.035-.092q-1.017-.037-1.757-.037-.777,0-1.757.037t-1.961.092Q114.331,133.111,113.479,133.111Zm30.562.407a12.272,12.272,0,0,1-5.809-1.24,8.164,8.164,0,0,1-3.5-3.46,10.989,10.989,0,0,1-1.165-5.18V113.094a3.768,3.768,0,0,0-.481-1.887,2.129,2.129,0,0,0-1.406-1.073q-1.036-.3-1.036-.814a.451.451,0,0,1,.277-.407,1.441,1.441,0,0,1,.685-.148q1.184,0,2.442.092t2.368.092q1.036,0,2.5-.074t2.5-.074a1.717,1.717,0,0,1,.721.13.439.439,0,0,1,.278.425q0,.407-.555.592a10.88,10.88,0,0,0-1.184.481,2.037,2.037,0,0,0-.962.907,3.828,3.828,0,0,0-.407,1.942v9.694a9.252,9.252,0,0,0,.814,4.144,5.519,5.519,0,0,0,2.165,2.405,5.937,5.937,0,0,0,3.016.777,6.12,6.12,0,0,0,5.013-2q1.647-2,1.646-6.1,0-.962.019-2.164t.018-2.479q0-1.276-.037-2.424a14.2,14.2,0,0,0-.24-2.59,3.56,3.56,0,0,0-.611-1.443,3.027,3.027,0,0,0-1.11-.851,5.174,5.174,0,0,0-.943-.388q-.536-.167-.536-.5a.407.407,0,0,1,.3-.407,2.391,2.391,0,0,1,.814-.111q1.332,0,2.016.037t1.536.037q.7,0,1.165-.037l.962-.074q.5-.037,1.2-.037a1.822,1.822,0,0,1,.7.111.435.435,0,0,1,.259.444q0,.481-1,.777a2.785,2.785,0,0,0-1.721,1.128,4.442,4.442,0,0,0-.574,2.128q-.111,2.812-.148,5.161t-.037,4.792a10.84,10.84,0,0,1-1.35,5.309,9.465,9.465,0,0,1-3.571,3.608A9.929,9.929,0,0,1,144.041,133.518Zm29.008-.259q-1.258,0-2.757-.074t-2.794-.13Q166.2,133,165.538,133q-.74,0-1.628.018t-1.831.056q-.943.037-1.794.037a.938.938,0,0,1-.481-.129.422.422,0,0,1-.222-.389.665.665,0,0,1,.2-.518,1.18,1.18,0,0,1,.573-.259,4.362,4.362,0,0,0,1.924-.758,2.139,2.139,0,0,0,.518-1.646v-16.8a2.388,2.388,0,0,0-.481-1.683,4.08,4.08,0,0,0-1.961-.833,1.18,1.18,0,0,1-.573-.259.665.665,0,0,1-.2-.518.464.464,0,0,1,.222-.407.85.85,0,0,1,.481-.148q.851,0,1.794.037t1.85.092q.906.055,1.646.055.592,0,1.554-.055t2.09-.111q1.129-.056,2.183-.111t1.721-.055a15.077,15.077,0,0,1,5.2.869,12.7,12.7,0,0,1,4.181,2.479,11.274,11.274,0,0,1,3.793,8.6,12.964,12.964,0,0,1-.888,4.755,12.432,12.432,0,0,1-2.59,4.07,12.192,12.192,0,0,1-4.144,2.831A14.3,14.3,0,0,1,173.049,133.259Zm-.555-1.887a6.974,6.974,0,0,0,4.218-1.239,7.34,7.34,0,0,0,2.535-3.441,14.449,14.449,0,0,0,.833-5.124,17.484,17.484,0,0,0-.536-4.5,10.739,10.739,0,0,0-1.554-3.46,6.968,6.968,0,0,0-5.9-3.034q-1.184,0-1.979.074a2.431,2.431,0,0,0-1.2.37,1.109,1.109,0,0,0-.407.962v16.132a3.469,3.469,0,0,0,.462,1.924,2.592,2.592,0,0,0,1.369,1.018A6.626,6.626,0,0,0,172.494,131.372Zm17.39,1.813a.883.883,0,0,1-.574-.167.491.491,0,0,1-.2-.388q0-.555.814-.777a4.849,4.849,0,0,0,1.794-.777,2.031,2.031,0,0,0,.536-1.628V112.613a2.462,2.462,0,0,0-.481-1.7,3.55,3.55,0,0,0-1.813-.814,1.288,1.288,0,0,1-.666-.314.669.669,0,0,1-.185-.463.48.48,0,0,1,.222-.388.963.963,0,0,1,.592-.167q.925,0,1.887.037t1.887.092q.925.055,1.776.055,1.924,0,4.107-.037t3.885-.074a12.27,12.27,0,0,0,1.961-.13q.777-.13.925-.13a1.244,1.244,0,0,1,.574.166.641.641,0,0,1,.352.537q.148,1.332.37,2.59a12.959,12.959,0,0,1,.222,2.22.809.809,0,0,1-.148.518.424.424,0,0,1-.333.185.668.668,0,0,1-.389-.148.936.936,0,0,1-.314-.444q-.37-.925-.666-1.591a4,4,0,0,0-.666-1.073,6.34,6.34,0,0,0-1.073-.777,3.1,3.1,0,0,0-1.591-.37h-2.775a2.345,2.345,0,0,0-1.406.425,1.394,1.394,0,0,0-.592,1.2v6.993a.829.829,0,0,0,.259.666.987.987,0,0,0,.666.222h3.256a1.536,1.536,0,0,0,1.387-.647,7.474,7.474,0,0,0,.758-1.573q.259-.7.74-.7a.416.416,0,0,1,.333.2.894.894,0,0,1,.111.61q-.037.444-.074.962t-.055,1.036q-.019.518-.019,1,0,.444.019.962l.037,1.036q.018.518.055,1a1.435,1.435,0,0,1-.037.758.356.356,0,0,1-.333.241q-.592,0-.851-.962a6.221,6.221,0,0,0-.74-1.7,1.312,1.312,0,0,0-1.147-.592h-3.441a1.03,1.03,0,0,0-.684.2.8.8,0,0,0-.24.647v7.03a2.055,2.055,0,0,0,.481,1.554,2.123,2.123,0,0,0,1.48.444h3.182a6.385,6.385,0,0,0,1.554-.185,3.028,3.028,0,0,0,1.258-.629,5.9,5.9,0,0,0,1.147-1.295,15.471,15.471,0,0,0,.962-1.665.9.9,0,0,1,.314-.352.787.787,0,0,1,.389-.092.3.3,0,0,1,.277.222,1.238,1.238,0,0,1,.092.481,6.125,6.125,0,0,1-.185,1.406q-.185.777-.463,1.646t-.536,1.721a.557.557,0,0,1-.314.37,1.179,1.179,0,0,1-.5.111q-.481,0-1.794-.018t-3.09-.055q-1.776-.037-3.663-.056T194.99,133q-.74,0-1.628.037t-1.794.092Q190.662,133.185,189.884,133.185Zm46.028.518a3.952,3.952,0,0,1-1.554-.574,7.563,7.563,0,0,1-2.22-2.016q-.888-.925-1.85-2t-2.035-2.22q-1.073-1.147-2.165-2.331l-2.165-2.35q-1.073-1.166-2.146-2.312t-2.035-2.22q-.962-1.073-1.85-2a.829.829,0,0,0-.241-.277.505.505,0,0,0-.24-.13q-.148,0-.2.259a2.169,2.169,0,0,0-.055.444q-.037,1.7,0,4t.092,4.644q.056,2.35.055,4.274a2.42,2.42,0,0,0,.74,1.868,5.012,5.012,0,0,0,2.183,1.054,2.482,2.482,0,0,1,.721.241.535.535,0,0,1,.314.5.451.451,0,0,1-.3.407,1.388,1.388,0,0,1-.629.148q-1,0-1.628-.055t-1.165-.074q-.536-.019-1.314-.019-.814,0-1.535.037t-1.221.074q-.5.037-.684.037a1.522,1.522,0,0,1-.574-.129.421.421,0,0,1-.314-.389.5.5,0,0,1,.3-.481q.3-.148.666-.3a2.568,2.568,0,0,0,1.351-1.11,4.255,4.255,0,0,0,.536-1.924q.148-1.369.314-3.626t.314-5.088q.148-2.831.148-5.865a3.5,3.5,0,0,0-.98-2.775,7.613,7.613,0,0,0-2.386-1.369,2.85,2.85,0,0,1-.666-.277.606.606,0,0,1-.37-.536.465.465,0,0,1,.3-.463,1.645,1.645,0,0,1,.666-.13q.666,0,1.5.037t1.757.055q.925.019,1.924.056t2,.037a.827.827,0,0,1,.463.111,1.406,1.406,0,0,1,.314.3l1.757,2q.944,1.073,1.98,2.238t2.109,2.368q1.073,1.2,2.128,2.424t2.072,2.368q1.017,1.147,1.979,2.22t1.776,2a2.988,2.988,0,0,0,.277.314.467.467,0,0,0,.314.167q.3,0,.3-.555,0-1.147.019-2.664t.018-3.219q0-1.7-.018-3.367t-.092-3.071a1.789,1.789,0,0,0-.759-1.5,6.361,6.361,0,0,0-1.979-.832,1.983,1.983,0,0,1-.7-.259.58.58,0,0,1-.3-.518.417.417,0,0,1,.3-.389,1.552,1.552,0,0,1,.629-.129q.851,0,1.443.018t1.073.019h1.073q.74,0,1.258-.019t1.129-.055q.61-.037,1.572-.037a1.312,1.312,0,0,1,.684.148.457.457,0,0,1,.241.407q0,.555-.962.74a4.1,4.1,0,0,0-1.85.74,2.054,2.054,0,0,0-.592,1.554q0,1.332-.018,2.849t-.092,3.108q-.074,1.591-.13,3.164t-.092,3.015q-.037,1.443-.037,2.664a17.335,17.335,0,0,0,.111,1.869q.111,1.017.2,1.85t.092,1.165a2.239,2.239,0,0,1-.277,1.295A.9.9,0,0,1,235.913,133.7Zm13.5-.592a1.39,1.39,0,0,1-.555-.129.417.417,0,0,1-.3-.389.6.6,0,0,1,.259-.518,1.612,1.612,0,0,1,.629-.259,5.4,5.4,0,0,0,2.053-.777,1.944,1.944,0,0,0,.648-1.665V114.093q0-1.443-.074-2.128a2.87,2.87,0,0,0-.2-.925.645.645,0,0,0-.314-.314,1.924,1.924,0,0,0-.87-.2q-.536-.019-.87-.019h-.814a4.616,4.616,0,0,0-2.238.574,5.052,5.052,0,0,0-1.684,1.424q-.185.259-.536.721a5.938,5.938,0,0,1-.74.814,1.152,1.152,0,0,1-.758.352.422.422,0,0,1-.407-.2.95.95,0,0,1-.111-.463,2.2,2.2,0,0,1,.222-.925,19.012,19.012,0,0,0,1.036-2.405,9.962,9.962,0,0,0,.444-2.294,1.12,1.12,0,0,1,.333-.758.932.932,0,0,1,.592-.2q.259,0,.555.481a3.448,3.448,0,0,0,.629.777,2.785,2.785,0,0,0,1.24.444,8.838,8.838,0,0,0,1.424.148h13.912a5.789,5.789,0,0,0,1.573-.185,4.862,4.862,0,0,0,.98-.37,3.492,3.492,0,0,0,.944-.74,1.068,1.068,0,0,1,.832-.407.33.33,0,0,1,.315.166.96.96,0,0,1,.092.463q0,.148-.018.37a3.621,3.621,0,0,1-.056.407q-.185.7-.37,1.35t-.3,1.24a6.612,6.612,0,0,0-.111,1.221v.74a2.97,2.97,0,0,1-.129.962.494.494,0,0,1-.5.37.647.647,0,0,1-.555-.351,5.526,5.526,0,0,1-.481-1.129,3.211,3.211,0,0,0-3.626-2.59h-1.924a1.712,1.712,0,0,0-1.017.278,1.8,1.8,0,0,0-.574,1.11,12.7,12.7,0,0,0-.185,2.535v14.911a1.962,1.962,0,0,0,.611,1.609,5.516,5.516,0,0,0,2.053.869,3.022,3.022,0,0,1,.629.259.512.512,0,0,1,.259.481.464.464,0,0,1-.222.407.98.98,0,0,1-.555.148q-.814,0-1.831-.055t-2.035-.092q-1.018-.037-1.758-.037-.777,0-1.757.037t-1.961.092Q250.269,133.111,249.417,133.111Zm28.194.074a.883.883,0,0,1-.573-.167.491.491,0,0,1-.2-.388.614.614,0,0,1,.222-.463,1.52,1.52,0,0,1,.555-.314,4.849,4.849,0,0,0,1.795-.777,1.977,1.977,0,0,0,.536-1.591V112.539a3.383,3.383,0,0,0-.185-1.258,1.392,1.392,0,0,0-.7-.7,6.9,6.9,0,0,0-1.517-.481q-.777-.185-.777-.777a.464.464,0,0,1,.222-.407.912.912,0,0,1,.518-.148q.851,0,1.794.037t1.85.092q.907.055,1.647.055.777,0,1.739-.037l1.98-.074q1.017-.037,1.831-.037a.806.806,0,0,1,.5.13.462.462,0,0,1,.167.388.6.6,0,0,1-.2.518,1.926,1.926,0,0,1-.573.259,5.571,5.571,0,0,0-2.053.869,1.984,1.984,0,0,0-.536,1.573v16.65a1.988,1.988,0,0,0,.462,1.48,2.176,2.176,0,0,0,1.535.444h3.774a3.676,3.676,0,0,0,1.461-.278,4.505,4.505,0,0,0,1.165-.721,6.971,6.971,0,0,0,1.11-1.35,12.905,12.905,0,0,0,.851-1.573,4.86,4.86,0,0,1,.574-.962.582.582,0,0,1,.425-.222.406.406,0,0,1,.407.259,1.228,1.228,0,0,1,.111.481,1.666,1.666,0,0,1-.074.333,1.588,1.588,0,0,0-.074.407q-.259,1.073-.481,1.868t-.352,1.517q-.13.722-.24,1.609a1.315,1.315,0,0,1-.167.481.454.454,0,0,1-.426.222q-.777,0-2.257-.037t-3.312-.055q-1.831-.018-3.737-.055T282.866,133q-.777,0-1.776.037t-1.943.092Q278.2,133.185,277.611,133.185Zm22.57-.074a1.01,1.01,0,0,1-.518-.129.422.422,0,0,1-.222-.389q0-.592.777-.777a4.7,4.7,0,0,0,1.961-.758,2.052,2.052,0,0,0,.555-1.646v-16.8a2.388,2.388,0,0,0-.481-1.683,4.08,4.08,0,0,0-1.961-.833q-.777-.185-.777-.777a.464.464,0,0,1,.222-.407.912.912,0,0,1,.518-.148q.851,0,1.794.037t1.85.092q.907.055,1.684.055.74,0,1.684-.037l1.924-.074q.98-.037,1.794-.037a.893.893,0,0,1,.518.13.443.443,0,0,1,.185.388.6.6,0,0,1-.2.518,1.918,1.918,0,0,1-.611.259,4.519,4.519,0,0,0-1.961.907,2.325,2.325,0,0,0-.481,1.646v16.724a2.056,2.056,0,0,0,.536,1.573,4.745,4.745,0,0,0,1.979.869,1.926,1.926,0,0,1,.573.259.554.554,0,0,1,.2.481.517.517,0,0,1-.167.407.732.732,0,0,1-.5.148q-.814,0-1.813-.055t-1.961-.092q-.962-.037-1.7-.037-.777,0-1.7.037t-1.887.092Q301.032,133.111,300.181,133.111Zm21.349.407a12.615,12.615,0,0,1-3.071-.37,9.523,9.523,0,0,1-2.775-1.184q-.222-.185-.444-.407a1.537,1.537,0,0,1-.333-.481,9.553,9.553,0,0,1-.5-2.442,25.539,25.539,0,0,1-.092-2.923.383.383,0,0,1,.222-.37,1.145,1.145,0,0,1,.518-.111.931.931,0,0,1,.5.092,1.114,1.114,0,0,1,.277.352,10.825,10.825,0,0,0,2.423,4.477,5.016,5.016,0,0,0,3.755,1.7,3.286,3.286,0,0,0,1.943-.536,3.575,3.575,0,0,0,1.165-1.369,3.8,3.8,0,0,0,.407-1.683,3.99,3.99,0,0,0-.462-2,4.734,4.734,0,0,0-1.388-1.48,21.842,21.842,0,0,0-2.368-1.443q-1.554-.888-3-1.868a8.55,8.55,0,0,1-2.368-2.387,6.266,6.266,0,0,1-.925-3.515,6.353,6.353,0,0,1,1.129-3.774,7.465,7.465,0,0,1,3.089-2.479,10.557,10.557,0,0,1,4.4-.888,11.842,11.842,0,0,1,2.682.3,16.315,16.315,0,0,1,2.053.592,1.83,1.83,0,0,1,.647.407,1.908,1.908,0,0,1,.352.777,16.612,16.612,0,0,1,.315,1.887,21.172,21.172,0,0,1,.129,2.442q0,.481-.666.481a1.164,1.164,0,0,1-.611-.167.731.731,0,0,1-.352-.425,7.206,7.206,0,0,0-1.85-3.367,4.213,4.213,0,0,0-3-1.147,4.363,4.363,0,0,0-1.887.37,2.484,2.484,0,0,0-1.165,1.11,3.952,3.952,0,0,0-.388,1.85,2.573,2.573,0,0,0,.611,1.647,8.012,8.012,0,0,0,1.757,1.535q1.147.777,2.627,1.665a17.171,17.171,0,0,1,3.182,2.331,7.386,7.386,0,0,1,1.72,2.423,8.462,8.462,0,0,1-.555,7.122,6.427,6.427,0,0,1-3.071,2.461A12.408,12.408,0,0,1,321.53,133.518Zm18.907-.407a1.39,1.39,0,0,1-.555-.129.417.417,0,0,1-.3-.389.6.6,0,0,1,.259-.518,1.612,1.612,0,0,1,.629-.259,5.4,5.4,0,0,0,2.053-.777,1.944,1.944,0,0,0,.647-1.665V114.093q0-1.443-.074-2.128a2.87,2.87,0,0,0-.2-.925.645.645,0,0,0-.314-.314,1.924,1.924,0,0,0-.87-.2q-.536-.019-.87-.019h-.814a4.616,4.616,0,0,0-2.238.574,5.052,5.052,0,0,0-1.684,1.424q-.185.259-.536.721a5.939,5.939,0,0,1-.74.814,1.152,1.152,0,0,1-.759.352.422.422,0,0,1-.407-.2.95.95,0,0,1-.111-.463,2.2,2.2,0,0,1,.222-.925,19.009,19.009,0,0,0,1.036-2.405,9.961,9.961,0,0,0,.444-2.294,1.12,1.12,0,0,1,.333-.758.932.932,0,0,1,.592-.2q.259,0,.555.481a3.447,3.447,0,0,0,.629.777,2.785,2.785,0,0,0,1.24.444,8.839,8.839,0,0,0,1.424.148h13.912a5.789,5.789,0,0,0,1.572-.185,4.862,4.862,0,0,0,.98-.37,3.492,3.492,0,0,0,.944-.74,1.068,1.068,0,0,1,.832-.407.33.33,0,0,1,.315.166.96.96,0,0,1,.092.463q0,.148-.018.37a3.621,3.621,0,0,1-.056.407q-.185.7-.37,1.35t-.3,1.24a6.612,6.612,0,0,0-.111,1.221v.74a2.97,2.97,0,0,1-.129.962.494.494,0,0,1-.5.37.647.647,0,0,1-.555-.351,5.528,5.528,0,0,1-.481-1.129,3.211,3.211,0,0,0-3.626-2.59h-1.924a1.712,1.712,0,0,0-1.017.278,1.8,1.8,0,0,0-.574,1.11,12.7,12.7,0,0,0-.185,2.535v14.911a1.962,1.962,0,0,0,.611,1.609,5.516,5.516,0,0,0,2.053.869,3.022,3.022,0,0,1,.629.259.512.512,0,0,1,.259.481.464.464,0,0,1-.222.407.98.98,0,0,1-.555.148q-.814,0-1.831-.055t-2.035-.092q-1.018-.037-1.758-.037-.777,0-1.758.037t-1.961.092Q341.288,133.111,340.438,133.111Z" transform="translate(12 239)" fill="#ebc272"/>
  </g>
</svg>
