<svg xmlns="http://www.w3.org/2000/svg" xmlns:xlink="http://www.w3.org/1999/xlink" width="1215" height="1593" viewBox="0 0 1215 1593">
  <defs>
    <clipPath id="clip-headerpicture">
      <rect width="1215" height="1593"/>
    </clipPath>
  </defs>
  <g id="headerpicture" clip-path="url(#clip-headerpicture)">
    <path id="Path_7" data-name="Path 7" d="M-12989.357-345.31c37.352-61.973,74.035-78.274,74.035-78.274l-6.312-46.758-10.074-13.915,10.074-7.781-10.074-14.845V-549.7s14.98-26.384,24.3-48.77a239.606,239.606,0,0,0,12.965-40.775s2.414-3.444,1.664-10.414c-.273-2.388-3.8-10.911-3.8-10.911a84.187,84.187,0,0,0,9.023-14.978,86.121,86.121,0,0,0,5.238-16.819l8.148,31.8a27.757,27.757,0,0,0-3.207,10.911c-.652,6.728.6,16,.6,16a207.458,207.458,0,0,0,17.992,32.143c10.824,15.529,25.313,29.973,25.313,29.973l6.52,21.841s5.5-19.846,4.75-27.865c-2.434-2.294-7.77-4.212-7.77-4.212l12.871-7.941s1.59,22.176,4.688,38.235a132.3,132.3,0,0,0,7.7,26h0l22.434-24.218s.914-36.828-5.652-72.494c-2.887-35.207-10.547-40.052-14.062-62.652a193.537,193.537,0,0,1-2.062-40.706l-8.66-5.544s21.918-35.2,36-64.958a336.721,336.721,0,0,0,20.328-54.09V-1017.49h-10.441a48.986,48.986,0,0,0,9.422-10.426,54.149,54.149,0,0,0,5.738-13.286,47.529,47.529,0,0,0,2.77,13.286,36.061,36.061,0,0,0,6.84,10.426h-4.988V-855.8s14.535,27.956,31.992,55.766,37.844,55.477,37.844,55.477l-5.207,110.9,45.332-39.858,40.336-42.778v-56.857s-3.785-2.851-3.785-6.153,3.785-7.055,3.785-7.055a12.379,12.379,0,0,0-.906-9.517c-2.645-4.681-9.687-9.208-9.687-9.208V-848.81a319.27,319.27,0,0,0,22.426-51.589c10.094-30.061,17.969-68.656,17.969-68.656s12.684,38.178,24.9,65.1,23.965,42.576,23.965,42.576l4.254,44.714-4.254,30.065,75.941-77.11,37.16,25.534v-60.093l19.59-8.254-7.957-22.441,53.7-169.624s.051-5.8-8.961-15.7c7.039-1.979,14.109-13.163,14.109-13.163s2.855,9.106,10.2,13.163c-8.555,7.149-10.2,17.978-10.2,17.978l51.617,198.043a58.512,58.512,0,0,0-7.5,22.331c-.574,4.575,2.5,17.018,2.5,17.018s-3.8,20.957-6.992,29c-3.41,35.9-1.645,75.235-1.645,75.235l32.723,45.515,38.563-82.455v-30.664l-12.2-15.885,9.316-6.968s19.578-9.479,31.551-44.265c13.242-28.419,27.2-61.742,27.2-61.742s16.918,35.241,37.633,61.742a254.149,254.149,0,0,0,45.234,44.265l-39.687,6.968s-20.5,87.965-5.547,122.613c22.852-.16-3.992,120.976,36.922,25.355,15.574,18.269,25.375,47.719,25.375,47.719l-17.062,26.439-3.148,40.238,40.262,19.962,5.07-19.962,45.3-52.727-2.684-17.387-22.789,3.437v-27.444h15.2l15.6-8.063,3.012,35.507,20.953-27.444v-29.79s-6.367-4.474-6.367-6.464,15.586-20.494,15.586-20.494l8.488,17.51-5.5,18.963v15.921l44.863,74.791,14.113,4.843v9.35l9.184,91.091-5.7,80.056s38.94,27.174,90.043,81.781c11.514,92.085-8.035,254.875-8.035,254.875l-101.121,91.464-13.691,30.069-23.379,9.655-12.859-5.259V73.362l-27.242,19.413-23.727-3.513-59.324,57.292v43.682l-14.266,11.533v9.413l-6.523,2.834-18.18-2.834v11.835l-21.781,12.169-21.543-9.444-55.945,46.509,4.605,22.316-23.168,31.651h-35.641L-12440.1,441.063l-85.047-75.645-24.828,19.3L-12571.436,360V339.644h-27.461l-22.34-19.934,9.211-41.1-86.539-108.717-21.168,5.491-18.691-18.46v-19.2l-21.375,2.977-17.957-16.882V94.141l-53.715-67.252h-25.668l-59.445-47.109-3.355-30.377-60.7-78.3-8.715-20.267S-12988.27-270.9-12989.357-345.31Z" transform="translate(13010 1127)" fill="rgba(108,43,35,0.92)"/>
    <path id="Path_10" data-name="Path 10" d="M489.28,35.48q.08.8.08,1.52v1.44a12.726,12.726,0,0,1-1.48,5.96,16.181,16.181,0,0,1-4.16,5.04,20.561,20.561,0,0,1-6.36,3.48,24.452,24.452,0,0,1-8.08,1.28q-6.56,0-9.8-2.96a9.922,9.922,0,0,1-3.24-7.68,14.749,14.749,0,0,1,2.6-7.92q2.6-4.08,8.6-7.44a59.3,59.3,0,0,1,15.84-5.56,114.126,114.126,0,0,1,24.4-2.2q4.48,0,8.16.24t6.32.24a26.173,26.173,0,0,0,3.88-.24,18.012,18.012,0,0,1,2.68-.24,2.868,2.868,0,0,1,1.76.6,2.02,2.02,0,0,1,.8,1.72,1.568,1.568,0,0,1-.44,1.16,2.759,2.759,0,0,1-1.56.6,26.151,26.151,0,0,1-3,.2q-1.88.04-4.76.04a19.856,19.856,0,0,0-9.32,1.96,22.5,22.5,0,0,0-6.92,5.92,77.708,77.708,0,0,0-6.64,9.92q-3.44,5.96-8.56,13.88-1.76,2.72-4.44,6.16a41.576,41.576,0,0,1-6.36,6.48,35.709,35.709,0,0,1-8.4,5.12,26.122,26.122,0,0,1-10.64,2.08,23.02,23.02,0,0,1-4.72-.52A15.525,15.525,0,0,1,451,74.08,10.055,10.055,0,0,1,447.64,71a8.133,8.133,0,0,1-1.32-4.72,4.628,4.628,0,0,1,1-3,3.439,3.439,0,0,1,2.84-1.24A2.873,2.873,0,0,1,453.12,65a2.457,2.457,0,0,1-.8,1.92,2.67,2.67,0,0,1-1.84.72,2.584,2.584,0,0,1-.96-.16,7.445,7.445,0,0,0,3.6,5.84,14.673,14.673,0,0,0,7.92,2,17.271,17.271,0,0,0,8.24-2,28.948,28.948,0,0,0,7-5.28,54.3,54.3,0,0,0,6.12-7.48q2.88-4.2,5.72-8.72t5.72-8.96a72.352,72.352,0,0,1,6.08-8.12,39.557,39.557,0,0,1,6.84-6.28,19.744,19.744,0,0,1,8.04-3.4v-.16q-3.6,0-7.84-.32t-7.84-.32a96.637,96.637,0,0,0-17.88,1.48,52.9,52.9,0,0,0-13.16,4.08,22.644,22.644,0,0,0-8.12,6.12,12.077,12.077,0,0,0-2.76,7.6q0,4.8,3.24,7.24t9.16,2.44A22.273,22.273,0,0,0,477.2,52a19.782,19.782,0,0,0,5.92-3.28A15.363,15.363,0,0,0,487,44.04a11.475,11.475,0,0,0,1.4-5.44V37.08q0-.8-.08-1.6Zm52.08-15.84L513.04,61.72l.16.16q1.6-2,3.76-4.6a50.858,50.858,0,0,1,4.68-4.92,29.366,29.366,0,0,1,5.32-3.92,11.2,11.2,0,0,1,5.6-1.6q4.88,0,4.88,4.88a6.808,6.808,0,0,1-.92,3.04,31.843,31.843,0,0,1-2.32,3.72q-1.4,1.96-3,3.96t-3,3.88a33,33,0,0,0-2.32,3.52,5.958,5.958,0,0,0-.92,2.76,2.18,2.18,0,0,0,.52,1.48,1.758,1.758,0,0,0,1.4.6,8.771,8.771,0,0,0,4.04-1.16,29.42,29.42,0,0,0,4.56-3.04,55.841,55.841,0,0,0,4.68-4.2q2.32-2.32,4.28-4.6t3.52-4.32a30.387,30.387,0,0,0,2.28-3.32l.48.16a40.7,40.7,0,0,1-2.48,3.68q-1.6,2.16-3.64,4.56t-4.4,4.76a56.367,56.367,0,0,1-4.72,4.24,26.788,26.788,0,0,1-4.68,3.04,9.73,9.73,0,0,1-4.32,1.16,4.473,4.473,0,0,1-4.72-4.8,8.236,8.236,0,0,1,.92-3.52A26.133,26.133,0,0,1,525,63.44q1.4-1.96,3-3.92t3-3.72a34.825,34.825,0,0,0,2.32-3.24,5.044,5.044,0,0,0,.92-2.52,1.962,1.962,0,0,0-.72-1.76,3.1,3.1,0,0,0-1.76-.48,8.742,8.742,0,0,0-4.44,1.48,32.024,32.024,0,0,0-5.04,3.88,62.91,62.91,0,0,0-5.16,5.4q-2.56,3-4.84,6.04t-4,5.76q-1.72,2.72-2.68,4.64h-5.2q4.4-6.88,9.04-14t9.24-14.16q4.6-7.04,9-13.88T536,19.88Zm28.8,30.4a2.19,2.19,0,0,0-.6-1.68,2.087,2.087,0,0,0-1.48-.56,6.634,6.634,0,0,0-3.64,1.32,25.107,25.107,0,0,0-3.88,3.28,32.685,32.685,0,0,0-3.48,4.2,26.121,26.121,0,0,0-2.36,4,30.508,30.508,0,0,0,4.4-1.24,32.136,32.136,0,0,0,5.08-2.28,18.248,18.248,0,0,0,4.2-3.16A5.481,5.481,0,0,0,570.16,50.04Zm12.96,4.24a52.263,52.263,0,0,1-3,4.4,50.359,50.359,0,0,1-4.08,4.76A66.542,66.542,0,0,1,571.16,68a44.062,44.062,0,0,1-5.4,3.92,29.508,29.508,0,0,1-5.64,2.72,16.68,16.68,0,0,1-5.56,1,7.326,7.326,0,0,1-5.2-1.72A6.406,6.406,0,0,1,547.52,69a15.469,15.469,0,0,1,2.12-7.4,31.39,31.39,0,0,1,5.4-7.16,31.981,31.981,0,0,1,7.2-5.44,15.6,15.6,0,0,1,7.52-2.16,5.1,5.1,0,0,1,3.12.84A2.862,2.862,0,0,1,574,50.12a5.031,5.031,0,0,1-2.08,3.72,23.847,23.847,0,0,1-5.08,3.28,52.353,52.353,0,0,1-6.44,2.64,55.259,55.259,0,0,1-6.08,1.72,16.908,16.908,0,0,0-1.44,3.6,14.775,14.775,0,0,0-.56,4,8.823,8.823,0,0,0,.2,1.88,5.78,5.78,0,0,0,.64,1.68,3.559,3.559,0,0,0,1.2,1.24,3.455,3.455,0,0,0,1.88.48,14.685,14.685,0,0,0,6.2-1.72,40.26,40.26,0,0,0,7.24-4.6,57.71,57.71,0,0,0,7.04-6.56,50.059,50.059,0,0,0,5.76-7.6ZM33.62,201.44a2.661,2.661,0,0,1-1.26-1.54q1.4-.7,3.5-1.68t4.9-2.24V184.92q0-8.68.98-10.08l.56.28v-.28q-.98-4.34-1.4-7.21a32.588,32.588,0,0,1-.42-4.27q0-1.54.7-1.96l3.78.98-3.78-6.72v-7.28a33.116,33.116,0,0,0-.56-7.42q-1.12-.28-2.8-.63t-3.92-.91l-.14-1.82.14-1.68,4.06-.28a12.631,12.631,0,0,1,3.5.28,20.062,20.062,0,0,0,3.36.42,13.329,13.329,0,0,0,1.68,1.4q.98.7,2.1,1.4l.42-.42-.28-1.4.14-.84a26.059,26.059,0,0,1,3.92-.56q1.26-.14,2.24-.21a6.369,6.369,0,0,1,1.68.07l2.38.14v1.54l-.14,1.96-6.72,1.4-.84,1.54.14,2.66-2.52,4.34,2.38-.42q-.14,1.54-.14,2.94v2.52q0,1.26.07,2.17a13.608,13.608,0,0,0,.21,1.61l-1.68,3.22.42.28.98-.28h.14l.14,3.64a32.253,32.253,0,0,0,5.46.84,14.58,14.58,0,0,0,2.52.07q1.4-.07,3.36-.21,2.1-.14,3.5-.14h2.1q2.8,0,5.18-.21T78,164.9l-.56-6.02a6.32,6.32,0,0,1,1.96-4.62q-.84-4.34-1.33-7.42a32.938,32.938,0,0,1-.49-4.9,39.788,39.788,0,0,1-3.57-1.89q-2.03-1.19-4.83-2.87l1.54-1.54h.98a16.637,16.637,0,0,1,2.8-.07q1.82.07,4.34.21,3.22.14,5.67.21t4.41.07L87.38,139l.14.14a13.469,13.469,0,0,0,2.66-1.82,6.289,6.289,0,0,1,2.52-1.12q.28.14,1.4.63t3.08,1.33l-8.54,3.78a29.911,29.911,0,0,1-2.24,5.18l2.1-2.1-.14,2.38-2.38,4.62a7.383,7.383,0,0,1,2.24-1.96,1.621,1.621,0,0,1,.28,1.12,253.048,253.048,0,0,1-1.68,26.6v.28q.28-.28.98-1.05t1.96-2.17l-1.26,10.5v9.94a45.444,45.444,0,0,1,6.86,2.66l.42,2.38-2.1,1.12-14.14-.7a36.676,36.676,0,0,1-6.16.42H71.84a12.923,12.923,0,0,1-1.82-.14,10.457,10.457,0,0,1,3.22-4.2l1.75-.35q1.05-.21,2.59-.63.42-6.86.42-11.2l-.28-10.78q-.7-.14-6.02-.21t-15.26-.35l.14.14a20.946,20.946,0,0,0-5.04.42l-.28,4.34q-.28,5.6-.14,10.01t.42,7.63a17.5,17.5,0,0,1,2.59.91q1.47.63,3.29,1.33a11.668,11.668,0,0,0,1.68,2.94,12.461,12.461,0,0,1-4.06.56l-11.34-.7,1.26-2.94q-3.64,2.8-5.32,3.22a12.16,12.16,0,0,1-2.03.21Q36.14,201.44,33.62,201.44Zm92.82-28.28a5.64,5.64,0,0,0,2.24.42q1.12,0,7.42-1.96-1.12-4.62-4.2-18.06ZM106.42,211.8q4.62-1.96,7.14-10.08,0-.28,2.94-14l3.78-3.64-2.94-1.82,3.22-11.2,2.94-.28-.7-4.48a23.047,23.047,0,0,0,.77-3.01q.49-2.31,1.61-6.23.7-2.66,1.47-4.76a17.879,17.879,0,0,1,1.89-3.78l5.18-.84-6.02-2.66a14.107,14.107,0,0,0,2.52-5.11,54.875,54.875,0,0,0,1.54-6.65l3.22,6.02-1.12-6.02q2.38.56,11.2,30.38,8.82,30.8,10.22,32.2a15.137,15.137,0,0,0,2.31,2.1q1.47,1.12,3.43,2.52v1.26q-.98,0-3.01-.21t-3.15-.21l-1.12.42.56,1.26-.42.28q-5.74-.7-10.01-1.12t-7.21-.42h-2.24l1.82-2.94,6.3-2.8.42-1.12q-.28-1.54-.63-3.15a19.132,19.132,0,0,0-1.05-3.29l4.76-5.74-6.16,1.12-1.54-4.34a24.861,24.861,0,0,0-7.42-1.4,13.275,13.275,0,0,0-6.02,1.4l-3.64,12.46q-.84,3.08-1.54,6.23t-1.12,6.37l.42,1.96a1.95,1.95,0,0,0,.84.14,3.9,3.9,0,0,0,1.68-.49,3.9,3.9,0,0,1,1.68-.49,3.369,3.369,0,0,1,2.38,1.54l-.56,1.26h-.28a13.748,13.748,0,0,0-4.62,1.26,11.271,11.271,0,0,1-4.76,1.12,7.553,7.553,0,0,1,1.96,1.82q-.98.28-2.38.7t-3.36.98q-1.96.56-3.36.84a6.493,6.493,0,0,1-2.24.14h-1.26Zm105-75.6a62.751,62.751,0,0,1,2.59,8.4q1.19,4.9,2.31,11.48-3.36-4.9-5.32-7.56a39.5,39.5,0,0,0-2.52-3.22,14.536,14.536,0,0,0-10.64-4.48q-7.7,0-12.04,9.24-3.36,7.84-3.36,18.9,0,11.48,3.92,19.46,4.62,9.38,12.46,9.38a21.328,21.328,0,0,0,10.64-3.36q6.86-4.06,6.86-9.8a28.917,28.917,0,0,0-.98-6.3A16.423,16.423,0,0,1,218,186.6q0,.56-.21,2.31t-.77,4.69q-4.06.28-5.32,3.08h5.46q-5.88,5.88-18.06,5.88a39.407,39.407,0,0,1-12.04-2.38q-8.26-3.22-9.94-7.56a2.456,2.456,0,0,0,.28-.7l-.14-.14a.4.4,0,0,0-.14-.28q.28-.56.77-1.47t1.19-2.45q0-.7-2.24-1.12a18.273,18.273,0,0,1-2.66-.84q-.84-.56-1.4-3.22a9.413,9.413,0,0,0-.7-2.94l.14-.7a9.366,9.366,0,0,1,3.22-.98v-.14l.14-.14-4.2-5.6-.14-1.12a63.875,63.875,0,0,1,1.75-15.61,35.658,35.658,0,0,1,5.18-11.83,23.374,23.374,0,0,1,8.4-7.49,24.332,24.332,0,0,1,11.41-2.59,25.3,25.3,0,0,1,7.56,1.05Q208.9,135.36,211.42,136.2Zm20.44,62.44q1.68-1.12,3.36-2.1t3.5-1.96q1.12-1.4,1.12-9.38.98-1.82,2.94-5.88l-.14-.28a10.344,10.344,0,0,0-2.94,2.52V180.3q0-11.34.07-17.57t.21-7.35l2.52,2.52q-2.66-4.76-2.66-7.28,0-2.8-.14-4.76a22.769,22.769,0,0,0-.42-3.22q-2.1-2.1-7.28-2.52l-1.12-2.38q.14-.14.49-.42a11.885,11.885,0,0,0,.91-.84q.98-.98,1.26-.98a19.892,19.892,0,0,1,5.32.42q2.24.56,4.48,3.5a19.5,19.5,0,0,0,5.46-2.24q3.64-1.96,5.46-1.96,1.96,0,4.06,2.66l-.7,1.26q-1.68.56-3.43,1.26t-3.71,1.4q0,.14.07,1.12t.35,2.94l-.28.56h-2.8l-.14.14q.84,1.12,1.4,1.96a4.828,4.828,0,0,1,.7,1.4,13.206,13.206,0,0,1,.42,4.06q0,.14-2.38,8.12l2.8-3.5-.56,6.72v.7q1.26-1.4,3.85-4.62t6.65-8.54q8.54-11.34,8.82-12.04-2.38.14-7.98-1.4l-.28-1.68.28-1.26,1.54-.84,5.32,2.52a14.469,14.469,0,0,0-1.33-1.19,11.349,11.349,0,0,1-1.05-.91h.28q2.38,0,7.42.42,4.76.42,7.42.42l2.24,2.66a26.466,26.466,0,0,0-13.86,8.54q-1.12,1.4-3.78,5.04t-6.72,9.94q1.54,1.12,2.38,6.3a4.7,4.7,0,0,1,.98-2.1q.14,0,7.14,10.92,6.3,10.36,7.7,12.88l-2.8-.56.14.14,5.74,4.34a27.228,27.228,0,0,1,5.18,5.18l-1.54,1.54a14.246,14.246,0,0,1-5.18-1.26q-1.82-.7-3.08-1.05a21.092,21.092,0,0,0-2.1-.49l2.52,2.52a25.527,25.527,0,0,0-6.58,0q-2.24.14-3.78.21t-2.52.07l-.84-.14-1.54-1.68a11.4,11.4,0,0,1,2.94-1.96,11.333,11.333,0,0,0,1.82-.84q.7-.42,1.12-.7a13.776,13.776,0,0,1-.56-1.89,24.664,24.664,0,0,0-.84-2.73q-4.34-9.24-14.98-22.68l-.7,4.9q-.42,2.94-.7,7a7.628,7.628,0,0,1,1.26,4.2v1.82q0,1.12.14,2.94l.28,4.9a8.306,8.306,0,0,0,3.22,2.66,9.953,9.953,0,0,1,3.5,2.66,13.982,13.982,0,0,0-1.26,1.4l-2.8.14q-4.2.28-12.88-2.94l-.14.14,2.1,2.38h-6.16q-2.52,0-4.2.14Zm63-55.3q-.28-7.98,17.22-7.98,18.48,0,25.34,1.54a16.263,16.263,0,0,1,.63,2.8q.35,2.1,1.05,5.74.84,6.72.84,7.7-1.82-1.96-4.13-4.9t-5.39-7a32.746,32.746,0,0,0-7-.56l-10.36.28v24.92L323.7,167q2.38.28,4.48-2.52a11.635,11.635,0,0,0,1.26-2.17q.7-1.47,1.68-3.43v10.5l-1.26,2.38a56.487,56.487,0,0,1,1.33,5.95,25.352,25.352,0,0,1,.35,3.43q-2.66-6.3-4.34-8.26a9.179,9.179,0,0,0-7-2.66h-2.52q-1.4,0-2.94.14l-1.68.14-.28,15.96q0,6.58.98,8.4,1.26,2.38,5.74,2.38h4.62q1.54-.14,2.66-.14h2.1q5.6,0,8.12-3.22,1.82-2.52,3.78-10.36l.56,2.1a41.288,41.288,0,0,1-.98,8.12q-.56,3.36-.84,5.46t-.42,2.8q-5.74.42-12.04.42-5.04,0-14.84-.42-5.04-.14-8.75-.21t-6.09-.07a14.2,14.2,0,0,0-3.92.28q7.98-1.82,8.96-12.46l1.4-.98v-.14l-2.52-3.78a25.157,25.157,0,0,1,2.59,1.12q1.75.84,4.55,2.1-.42-.56-1.89-2.38t-3.99-5.04l.42-6.16a41.138,41.138,0,0,0-1.4-10.78l.14-.14a21.4,21.4,0,0,1,3.64,1.82,42.807,42.807,0,0,1-2.45-6.44,18.157,18.157,0,0,1-.77-4.62q0-3.92.7-5.18l2.94-3.36-4.48,1.4.84-2.24-.28-2.8-2.24-.7a7.8,7.8,0,0,0-5.04,2.38Zm78.54-2.38a22.866,22.866,0,0,0-1.05,4.27,34.256,34.256,0,0,0-.35,5.11q0,1.68.14,4.2t.56,5.88q.42,3.36.56,5.88t.14,4.34q0,2.52-.42,7.7-.28,2.52-.42,4.41t-.14,3.15q0,10.78,10.78,10.78,15.82,0,15.82-30.52,0-1.12-.14-2.66a35.194,35.194,0,0,0-.56-3.64,34.4,34.4,0,0,1-.56-3.71q-.14-1.61-.14-2.73a16.087,16.087,0,0,1,2.24-2.1,14.572,14.572,0,0,1-2.17-.84q-1.19-.56-2.45-1.26l-6.58-7q-2.8-2.66-8.54-2.66A14.884,14.884,0,0,0,373.4,140.96Zm-18.48,60.76q5.18-1.4,7.14-5.18,1.54-3.08,1.54-8.82,0,.42-.07-1.82t-.21-7.14l1.96-2.1-1.96-2.8,3.5-4.06-3.78-3.36q-.14-1.82-.21-3.71t-.07-4.13q0-1.4.07-4.9t.21-9.38l2.8-2.8a20.176,20.176,0,0,0-3.78,1.12q-2.66.98-7.14,2.8v-.28q0-5.46,6.58-8.4,2.38-1.12,4.69-2.31a10.141,10.141,0,0,1,4.69-1.19,59.948,59.948,0,0,1,15.82,1.82,45.029,45.029,0,0,1,10.64,4.2q12.74,7.42,12.74,28.14,0,15.68-5.6,24.64-6.3,9.66-17.64,9.66Zm103.04-.28a2.661,2.661,0,0,1-1.26-1.54q1.4-.7,3.5-1.68t4.9-2.24V184.92q0-8.68.98-10.08l.56.28v-.28q-.98-4.34-1.4-7.21a32.589,32.589,0,0,1-.42-4.27q0-1.54.7-1.96l3.78.98-3.78-6.72v-7.28a33.117,33.117,0,0,0-.56-7.42q-1.12-.28-2.8-.63t-3.92-.91l-.14-1.82.14-1.68,4.06-.28a12.631,12.631,0,0,1,3.5.28,20.062,20.062,0,0,0,3.36.42,13.328,13.328,0,0,0,1.68,1.4q.98.7,2.1,1.4l.42-.42-.28-1.4.14-.84a26.061,26.061,0,0,1,3.92-.56q1.26-.14,2.24-.21a6.37,6.37,0,0,1,1.68.07l2.38.14v1.54l-.14,1.96-6.72,1.4-.84,1.54.14,2.66-2.52,4.34,2.38-.42q-.14,1.54-.14,2.94v2.52q0,1.26.07,2.17a13.61,13.61,0,0,0,.21,1.61l-1.68,3.22.42.28.98-.28h.14l.14,3.64a32.253,32.253,0,0,0,5.46.84,14.58,14.58,0,0,0,2.52.07q1.4-.07,3.36-.21,2.1-.14,3.5-.14h2.1q2.8,0,5.18-.21t4.34-.49l-.56-6.02a6.32,6.32,0,0,1,1.96-4.62q-.84-4.34-1.33-7.42a32.939,32.939,0,0,1-.49-4.9,39.787,39.787,0,0,1-3.57-1.89q-2.03-1.19-4.83-2.87l1.54-1.54h.98a16.638,16.638,0,0,1,2.8-.07q1.82.07,4.34.21,3.22.14,5.67.21t4.41.07L511.72,139l.14.14a13.467,13.467,0,0,0,2.66-1.82,6.289,6.289,0,0,1,2.52-1.12q.28.14,1.4.63t3.08,1.33l-8.54,3.78a29.909,29.909,0,0,1-2.24,5.18l2.1-2.1-.14,2.38-2.38,4.62a7.383,7.383,0,0,1,2.24-1.96,1.622,1.622,0,0,1,.28,1.12,253.05,253.05,0,0,1-1.68,26.6v.28q.28-.28.98-1.05t1.96-2.17l-1.26,10.5v9.94a45.444,45.444,0,0,1,6.86,2.66l.42,2.38-2.1,1.12-14.14-.7a36.676,36.676,0,0,1-6.16.42h-1.54a12.924,12.924,0,0,1-1.82-.14,10.457,10.457,0,0,1,3.22-4.2l1.75-.35q1.05-.21,2.59-.63.42-6.86.42-11.2l-.28-10.78q-.7-.14-6.02-.21t-15.26-.35l.14.14a20.946,20.946,0,0,0-5.04.42l-.28,4.34q-.28,5.6-.14,10.01t.42,7.63a17.5,17.5,0,0,1,2.59.91q1.47.63,3.29,1.33a11.667,11.667,0,0,0,1.68,2.94,12.461,12.461,0,0,1-4.06.56l-11.34-.7,1.26-2.94q-3.64,2.8-5.32,3.22a12.159,12.159,0,0,1-2.03.21Q460.48,201.44,457.96,201.44Zm89.32-40.88a56.705,56.705,0,0,0,2.8,18.76q-.7,1.12-1.54,2.45a23.837,23.837,0,0,0-1.54,2.87q1.4,1.4,5.6,1.54a48.8,48.8,0,0,0,4.76,8.12,9.149,9.149,0,0,0,7.14,3.36,13.216,13.216,0,0,0,10.99-5.32q4.13-5.32,4.13-14.56,0-2.24-.21-4.62a48.148,48.148,0,0,0-.77-5.18,13.568,13.568,0,0,1,2.52-.14h1.96a20.53,20.53,0,0,1,2.24.14q-7.28-2.94-7.7-5.46a6.953,6.953,0,0,0,.84-1.68,9.865,9.865,0,0,0-1.96-2.24l4.48-.98q-1.54-1.12-3.08-2.31t-3.22-2.59q-5.46-11.76-12.32-11.76Q547.28,140.96,547.28,160.56Zm-10.22,9.38a17.467,17.467,0,0,0-.35-3.01q-.35-1.89-.49-2.87a9.071,9.071,0,0,1,2.1-.14H540q1.12,0,2.52.14-1.12-1.4-5.88-3.92,2.38-12.18,9.94-19.04a43.291,43.291,0,0,1,7.84-5.53,18.579,18.579,0,0,1,9.1-2.31,20.206,20.206,0,0,1,10.64,2.87,35.8,35.8,0,0,1,8.54,7.21q8.12,9.24,8.12,24.36,0,15.96-7.98,26.04-7.84,9.94-19.74,9.94a22.319,22.319,0,0,1-12.53-4.06,31.848,31.848,0,0,1-10.01-10.92,20.034,20.034,0,0,0,2.59-.42,18.9,18.9,0,0,0,2.31-.7,36.533,36.533,0,0,1-6.3-1.96Q537.06,180.58,537.06,169.94Zm113.96-30.8q1.12,7.14,1.75,11.83a58.042,58.042,0,0,1,.63,7.07v.14q-2.94-11.34-6.86-14.28-3.5-2.38-12.32-2.38-14.42,0-14.42,28.84,0,10.78,3.78,18.48-1.68-.28-2.87-.42a17.786,17.786,0,0,0-2.03-.14l-.42.28q0,.7,7.14,3.22,4.2,6.44,12.32,6.44,5.32,0,5.32-1.96a1.742,1.742,0,0,0,.42-.77q.14-.49.42-1.19a13.612,13.612,0,0,0-2.66-4.76,12.336,12.336,0,0,1,.42-3.08,3.252,3.252,0,0,1,1.4-2.1,24.1,24.1,0,0,0,1.68-3.64,24.2,24.2,0,0,0-1.61,1.82q-.91,1.12-2.17,2.66l-.28-.28q0-1.26-.14-3.85t-.14-3.85l.14-.28a4.014,4.014,0,0,1,1.96,1.26l.14-.14q-.7-1.4-.98-2.1t-.42-.98a3.863,3.863,0,0,0-2.8-.84,6.567,6.567,0,0,0-4.62,2.24v-.28q-2.1,1.54-2.94,5.74l-.28-2.94a18.5,18.5,0,0,1,1.96-7.28l2.94-1.82a35.2,35.2,0,0,1,3.57.21q2.03.21,4.83.49t4.83.49a35.2,35.2,0,0,0,3.57.21q.98,0,2.03-.07t2.17-.21l.28.14q-1.12,1.96-5.46,5.74-.28,1.4-.42,2.73a26.072,26.072,0,0,0-.14,2.73,16.35,16.35,0,0,0,.49,3.64q.49,2.1,1.33,4.9a27.852,27.852,0,0,1,1.82,8.4q0,2.38-3.78,3.36a16.713,16.713,0,0,1-5.32.84H633.1q-9.38,0-16.94-7.98,1.26-.56,2.52-1.05a14.164,14.164,0,0,0,2.38-1.19l-4.06.14h-2.66a22,22,0,0,1-3.64-8.54q-.98-3.08-1.61-5.11a10.927,10.927,0,0,0-1.33-3.01q.98-.98,6.02-1.82-1.12-.56-2.8-1.26t-4.06-1.68a8.967,8.967,0,0,0,1.47-.77q.77-.49,1.61-1.05a4.338,4.338,0,0,0-.84-.28q-.56-.14-1.4-.28a59.457,59.457,0,0,1,1.75-14.98,34.2,34.2,0,0,1,5.11-11.41,23.691,23.691,0,0,1,8.26-7.28,23.3,23.3,0,0,1,11.06-2.59,25.875,25.875,0,0,1,9.87,1.75A28.662,28.662,0,0,1,651.02,139.14Zm71.54,31.08q.28.7.7,1.54t.84,1.82l-.56-6.44,1.68,3.64q-.28-2.66-.42-4.48t-.14-2.94l6.16-21.28-.14-.84q-1.26-.56-2.87-1.33t-3.71-1.89v-.14q0-.14,1.54-.84,2.1-.7,2.24-.7l12.88.14.14,1.68q-3.08,6.86-6.16,15.12t-6.16,18.34q-.7,2.1-10.08,34.86l-2.94-3.08q-2.24-8.12-4.27-14.49a112.264,112.264,0,0,0-4.13-11.13q-.7,2.38-1.89,5.6t-3.01,7.28q-1.82,4.34-3.01,7.49t-1.89,5.11l-4.06,1.96-3.08-13.02,1.54-1.96-2.52-1.4q-.7-1.4-1.82-3.57t-2.52-5.25q.7-1.26,6.44-4.76l-3.36-1.12q-1.68-.56-3.5-1.26-1.96-6.16-3.29-10.57t-2.45-7.21q-5.04-14-7.7-15.4l-.14-3.22a19.258,19.258,0,0,1,4.34-.98,44.385,44.385,0,0,1,4.9-.42q11.76,0,12.18,8.26-.28-.14-.84-.49t-1.68-.91a4.691,4.691,0,0,0-2.66-.98l-2.38.98q1.12,5.32,2.52,10.5t3.22,10.5q.7,1.96,2.45,6.93t4.55,13.23q2.38-5.6,7.28-23.24h.14a15.178,15.178,0,0,0,1.75,1.47q1.05.77,2.59,1.75h.14q-1.68-3.5-3.36-7.56l2.38-7.7,6.02,18.34-3.92,2.8,5.46,1.82,3.36,10.36Zm46.06,2.94a5.64,5.64,0,0,0,2.24.42q1.12,0,7.42-1.96-1.12-4.62-4.2-18.06ZM748.6,211.8q4.62-1.96,7.14-10.08,0-.28,2.94-14l3.78-3.64-2.94-1.82,3.22-11.2,2.94-.28-.7-4.48a23.038,23.038,0,0,0,.77-3.01q.49-2.31,1.61-6.23.7-2.66,1.47-4.76a17.879,17.879,0,0,1,1.89-3.78l5.18-.84-6.02-2.66a14.107,14.107,0,0,0,2.52-5.11,54.881,54.881,0,0,0,1.54-6.65l3.22,6.02-1.12-6.02q2.38.56,11.2,30.38,8.82,30.8,10.22,32.2a15.135,15.135,0,0,0,2.31,2.1q1.47,1.12,3.43,2.52v1.26q-.98,0-3.01-.21t-3.15-.21l-1.12.42.56,1.26-.42.28q-5.74-.7-10.01-1.12t-7.21-.42H776.6l1.82-2.94,6.3-2.8.42-1.12q-.28-1.54-.63-3.15a19.136,19.136,0,0,0-1.05-3.29l4.76-5.74-6.16,1.12-1.54-4.34a24.861,24.861,0,0,0-7.42-1.4,13.275,13.275,0,0,0-6.02,1.4l-3.64,12.46q-.84,3.08-1.54,6.23t-1.12,6.37l.42,1.96a1.949,1.949,0,0,0,.84.14,3.9,3.9,0,0,0,1.68-.49,3.9,3.9,0,0,1,1.68-.49,3.369,3.369,0,0,1,2.38,1.54l-.56,1.26h-.28a13.748,13.748,0,0,0-4.62,1.26,11.271,11.271,0,0,1-4.76,1.12,7.553,7.553,0,0,1,1.96,1.82q-.98.28-2.38.7t-3.36.98q-1.96.56-3.36.84a6.493,6.493,0,0,1-2.24.14h-1.26Zm83.16-47.88a4.69,4.69,0,0,1-.77,1.47q-.77,1.19-2.17,3.15.42,0,2.1-1.82a4.66,4.66,0,0,0,.84,1.68,25.139,25.139,0,0,1,1.26-2.52,23.2,23.2,0,0,0,6.72-.7q2.94-.98,5.46-4.9h.14a6.5,6.5,0,0,0,1.12.35q.84.21,2.1.49l-3.22-4.06v-.14a12.14,12.14,0,0,0,1.12-1.26,15.365,15.365,0,0,0,.28-3.78q0-7.42-3.36-9.8-2.24-1.82-8.54-1.82-.7,0-1.47.07a13.924,13.924,0,0,0-1.47.21q0,1.96-.07,4.83t-.07,6.79q-.14,3.92-.14,6.86v4.76Zm-9.66,44.8q.42-12.32.42-19.88,0-8.82-.7-9.66l2.38.56q0-.14-1.54-3.92a24.048,24.048,0,0,1-1.26-3.22l.14-.14q.42,0,5.46,1.4a25.279,25.279,0,0,1-4.62-4.34q.14-1.4,3.22-6.58a9,9,0,0,0-1.05.21q-.91.21-2.59.49-.28-.84-.28-8.82l1.26.84.14-.28q0,.28-.35-.63t-1.05-3.29a4.741,4.741,0,0,1,1.96-.98l-.14-.14h.14a8.9,8.9,0,0,1-1.12-1.54,25.556,25.556,0,0,1,3.78-2.94q.42.14-.42.14h-3.22a2.172,2.172,0,0,1-1.54-.42l1.82-1.4q-1.26-3.92-4.48-4.06l-3.78,2.1q1.12-4.9,11.9-6.3,3.22-.56,14.84-.56a16.259,16.259,0,0,1,11.34,4.34q5.6,4.76,5.6,13.16,0,11.48-10.22,15.68,3.08,6.58,6.3,13.37t6.86,13.93l6.02,5.04q3.5,3.5,3.5,7.28l-.14,2.38q-.42-6.16-10.22-11.06-1.4,1.82-5.6,1.54a7.69,7.69,0,0,0-2.94,2.8l-.56-.28q-9.24-33.46-16.24-33.18l-3.22.14-.14,2.66v1.96l.14,32.62q1.12.28,2.73.7t3.85,1.12l1.68,2.52q-1.82.98-7.28.98-7.42,0-17.08,4.76l-1.26-1.4A28.156,28.156,0,0,1,822.1,208.72Zm57.82-78.4,4.06,6.86a65.419,65.419,0,0,0,6.86.42,17.351,17.351,0,0,0,4.34-.42l6.86,4.2-3.08-6.3h1.26l5.6,5.04-.7-3.22,5.32.28h9.8l2.1-.42q.98-1.96,1.75-3.36a24.173,24.173,0,0,1,1.47-2.38l1.12,1.96a26.494,26.494,0,0,0-1.68,9.38,18.908,18.908,0,0,0,1.68,8.26l-.14,5.32q-1.82-1.68-4.76-8.26-2.38-5.32-5.32-5.32h-1.82a16.981,16.981,0,0,0-2.1.14l-4.06.42q-.84,8.26-.84,26.46,0,2.8.07,8.61t.35,14.77q.42,19.88.84,20.3l1.68.28a7.263,7.263,0,0,0,1.61-.21q.91-.21,2.31-.49a10.711,10.711,0,0,1,3.92-.7l.84.14q-3.36,4.76-14.14,8.82-9.66,3.5-16.38,3.5a3.939,3.939,0,0,1-1.19-.42,3.705,3.705,0,0,0-1.33-.42l1.26-1.68q1.82-.42,10.08-7.56v-31.5l.42-.56,5.04,1.26a32.1,32.1,0,0,1-4.9-5.32l.84-1.4-1.4-3.08,5.46-4.34-5.32.28a28.925,28.925,0,0,1-.07-3.57q.07-2.03.35-4.69,0-2.8.07-4.9t.07-3.5a78.111,78.111,0,0,0-.84-9.1l-.7-.98-7.84-.14a7.193,7.193,0,0,0-6.86,3.22l-4.76,9.1-.56-1.4q2.52-10.22,2.52-13.02,0-.98-.07-1.82t-.21-1.82l.42-.7,1.68,1.12.14-.14Zm93.94,26.04q-1.12-2.8-1.89-5.18a44.6,44.6,0,0,1-1.19-4.34l-.42,1.12.14,2.66-.42.98q-3.78-7.14-4.9-8.4-2.8-3.78-6.72-3.78a7.312,7.312,0,0,0-5.6,2.24,9.269,9.269,0,0,0-2.52,6.86q0,6.02,6.72,9.8l12.32,7q6.72,5.46,6.72,15.96,0,10.92-4.48,16.8t-12.74,5.88q-3.5,0-10.22-5.88-7-6.02-6.72-10.08l.14-3.08a20.855,20.855,0,0,0,2.52,5.04l.14-1.12q0-.7-.42-3.92t-1.12-8.96q7.14,22.26,16.38,22.26a9.959,9.959,0,0,0,6.86-2.8,11.183,11.183,0,0,0,3.22-8.26q0-5.88-9.1-10.36-3.22-1.4-13.02-6.3l5.6-1.54a50.187,50.187,0,0,1-8.12-2.38v-2.52a20.814,20.814,0,0,0-1.12-5.04,20.094,20.094,0,0,1-.98-5.18q0-9.66,5.04-14.7a26.211,26.211,0,0,1,5.39-4.13,12.991,12.991,0,0,1,6.65-1.75,9.791,9.791,0,0,1,6.51,2.17,15.843,15.843,0,0,1,4.13,5.39,30.215,30.215,0,0,1,1.54,5.39Q973.02,150.06,973.86,156.36Zm-777.56,140q-1.12-2.8-1.89-5.18a44.6,44.6,0,0,1-1.19-4.34l-.42,1.12.14,2.66-.42.98q-3.78-7.14-4.9-8.4-2.8-3.78-6.72-3.78a7.312,7.312,0,0,0-5.6,2.24,9.269,9.269,0,0,0-2.52,6.86q0,6.02,6.72,9.8l12.32,7q6.72,5.46,6.72,15.96,0,10.92-4.48,16.8t-12.74,5.88q-3.5,0-10.22-5.88-7-6.02-6.72-10.08l.14-3.08a20.852,20.852,0,0,0,2.52,5.04l.14-1.12q0-.7-.42-3.92t-1.12-8.96q7.14,22.26,16.38,22.26a9.958,9.958,0,0,0,6.86-2.8,11.183,11.183,0,0,0,3.22-8.26q0-5.88-9.1-10.36-3.22-1.4-13.02-6.3l5.6-1.54a50.191,50.191,0,0,1-8.12-2.38v-2.52a20.813,20.813,0,0,0-1.12-5.04,20.1,20.1,0,0,1-.98-5.18q0-9.66,5.04-14.7a26.21,26.21,0,0,1,5.39-4.13,12.991,12.991,0,0,1,6.65-1.75,9.791,9.791,0,0,1,6.51,2.17,15.842,15.842,0,0,1,4.13,5.39,30.215,30.215,0,0,1,1.54,5.39Q195.46,290.06,196.3,296.36Zm19.04-26.04,4.06,6.86a65.424,65.424,0,0,0,6.86.42,17.352,17.352,0,0,0,4.34-.42l6.86,4.2-3.08-6.3h1.26l5.6,5.04-.7-3.22,5.32.28h9.8l2.1-.42q.98-1.96,1.75-3.36a24.182,24.182,0,0,1,1.47-2.38l1.12,1.96a26.494,26.494,0,0,0-1.68,9.38,18.908,18.908,0,0,0,1.68,8.26l-.14,5.32q-1.82-1.68-4.76-8.26-2.38-5.32-5.32-5.32h-1.82a16.979,16.979,0,0,0-2.1.14l-4.06.42q-.84,8.26-.84,26.46,0,2.8.07,8.61t.35,14.77q.42,19.88.84,20.3l1.68.28a7.265,7.265,0,0,0,1.61-.21q.91-.21,2.31-.49a10.71,10.71,0,0,1,3.92-.7l.84.14q-3.36,4.76-14.14,8.82-9.66,3.5-16.38,3.5a3.939,3.939,0,0,1-1.19-.42,3.706,3.706,0,0,0-1.33-.42l1.26-1.68q1.82-.42,10.08-7.56v-31.5l.42-.56,5.04,1.26a32.1,32.1,0,0,1-4.9-5.32l.84-1.4-1.4-3.08,5.46-4.34-5.32.28a28.925,28.925,0,0,1-.07-3.57q.07-2.03.35-4.69,0-2.8.07-4.9t.07-3.5a78.113,78.113,0,0,0-.84-9.1l-.7-.98-7.84-.14A7.193,7.193,0,0,0,217.3,286l-4.76,9.1-.56-1.4q2.52-10.22,2.52-13.02,0-.98-.07-1.82t-.21-1.82l.42-.7,1.68,1.12.14-.14Zm60.34,6.58,2.24-.7q4.76,0,11.62,2.8a1.141,1.141,0,0,0,.28-.84,2.643,2.643,0,0,0-.14-.84l1.26-.98,10.08-.14.98,1.82-.98,2.1a19.623,19.623,0,0,1-2.1.14,5.89,5.89,0,0,0-1.4.14,13.156,13.156,0,0,0-3.36,1.26,27.87,27.87,0,0,0-.42,5.32q0,1.96.14,4.2t.42,4.9l-3.92,4.76,3.5.28q-.14,2.66-.21,5.11t-.07,4.83a104.3,104.3,0,0,0,.84,14.42q-.7,1.68-1.68,4.48l.14.28,2.1-1.26.14.14q2.52,8.96,10.64,8.96,14.28,0,14.28-22.12,0-12.88-1.12-18.06l.56-.28q.7.14.91.21t.07.07l.28-.42a36.1,36.1,0,0,1-1.4-9.66q-.28-5.74-1.12-7-1.26-2.52-6.44-2.38l-.56-.14-.42-1.96,3.64-1.96h8.26a10.3,10.3,0,0,1,7.7,2.52l.14,1.26-6.02,1.54-1.68-.98V279q.98,1.82,1.54,2.94a4.912,4.912,0,0,1,.56,1.4q-.28,2.8-.28,7t.14,9.94l.42,17.08q.7,25.9-21.98,25.9-19.74,0-19.88-23.24l1.54-1.54a28.1,28.1,0,0,1-1.68-7.84l1.4-3.92-1.96-.84-.42-4.62,4.9-11.62-3.78,6.44v-4.2l1.54-2.38-1.68-2.38q-.28-5.32-1.54-6.02l-5.04-1.26Zm88.06,4.06a22.867,22.867,0,0,0-1.05,4.27,34.255,34.255,0,0,0-.35,5.11q0,1.68.14,4.2t.56,5.88q.42,3.36.56,5.88t.14,4.34q0,2.52-.42,7.7-.28,2.52-.42,4.41t-.14,3.15q0,10.78,10.78,10.78,15.82,0,15.82-30.52,0-1.12-.14-2.66a35.186,35.186,0,0,0-.56-3.64,34.4,34.4,0,0,1-.56-3.71q-.14-1.61-.14-2.73a16.085,16.085,0,0,1,2.24-2.1,14.575,14.575,0,0,1-2.17-.84q-1.19-.56-2.45-1.26l-6.58-7q-2.8-2.66-8.54-2.66A14.884,14.884,0,0,0,363.74,280.96Zm-18.48,60.76q5.18-1.4,7.14-5.18,1.54-3.08,1.54-8.82,0,.42-.07-1.82t-.21-7.14l1.96-2.1-1.96-2.8,3.5-4.06-3.78-3.36q-.14-1.82-.21-3.71t-.07-4.13q0-1.4.07-4.9t.21-9.38l2.8-2.8a20.176,20.176,0,0,0-3.78,1.12q-2.66.98-7.14,2.8v-.28q0-5.46,6.58-8.4,2.38-1.12,4.69-2.31a10.141,10.141,0,0,1,4.69-1.19,59.948,59.948,0,0,1,15.82,1.82,45.029,45.029,0,0,1,10.64,4.2q12.74,7.42,12.74,28.14,0,15.68-5.6,24.64-6.3,9.66-17.64,9.66Zm71.4-58.38q-.28-7.98,17.22-7.98,18.48,0,25.34,1.54a16.266,16.266,0,0,1,.63,2.8q.35,2.1,1.05,5.74.84,6.72.84,7.7-1.82-1.96-4.13-4.9t-5.39-7a32.748,32.748,0,0,0-7-.56l-10.36.28v24.92L445.5,307q2.38.28,4.48-2.52a11.635,11.635,0,0,0,1.26-2.17q.7-1.47,1.68-3.43v10.5l-1.26,2.38a56.486,56.486,0,0,1,1.33,5.95,25.351,25.351,0,0,1,.35,3.43q-2.66-6.3-4.34-8.26a9.179,9.179,0,0,0-7-2.66h-2.52q-1.4,0-2.94.14l-1.68.14-.28,15.96q0,6.58.98,8.4,1.26,2.38,5.74,2.38h4.62q1.54-.14,2.66-.14h2.1q5.6,0,8.12-3.22,1.82-2.52,3.78-10.36l.56,2.1a41.288,41.288,0,0,1-.98,8.12q-.56,3.36-.84,5.46t-.42,2.8q-5.74.42-12.04.42-5.04,0-14.84-.42-5.04-.14-8.75-.21t-6.09-.07a14.2,14.2,0,0,0-3.92.28q7.98-1.82,8.96-12.46l1.4-.98v-.14l-2.52-3.78a25.161,25.161,0,0,1,2.59,1.12q1.75.84,4.55,2.1-.42-.56-1.89-2.38t-3.99-5.04l.42-6.16a41.136,41.136,0,0,0-1.4-10.78l.14-.14a21.4,21.4,0,0,1,3.64,1.82,42.807,42.807,0,0,1-2.45-6.44,18.157,18.157,0,0,1-.77-4.62q0-3.92.7-5.18l2.94-3.36-4.48,1.4.84-2.24-.28-2.8-2.24-.7a7.8,7.8,0,0,0-5.04,2.38Zm60.06-.56q.28-1.54.42-2.87a3.242,3.242,0,0,1,1.54-2.31,8.19,8.19,0,0,1,5.04-1.68q1.82,0,5.46,3.78-.28-.56-.56-1.19a12.531,12.531,0,0,1-.56-1.61l.42-.56,2.38-.14h1.26l6.58,8.26v5.88l.28.14q.28-.7.7-1.82a15.574,15.574,0,0,0,.7-2.66l.98,4.9h.14l1.26-1.12q.56,0,7.7,10.22l17.36,24.36V323.1q0-15.12-.49-25.2a124.494,124.494,0,0,0-1.47-15.4,16.418,16.418,0,0,0-2.94-1.68l-3.08-1.12-.7-2.1,1.68-1.12h4.34q2.24,0,4.34.14,6.44.14,8.12,1.26l-.98,2.24q-5.04,1.26-6.72,6.86v.14l2.24-1.54.28.28a25.03,25.03,0,0,0-.98,5.32v14.28q0,5.46.14,7.7.28,6.44.77,11.76t1.19,9.66l-3.08,1.12,1.82,2.24.28,2.52-.98-.28-.28.28q.84,1.96,2.52,6.3l-6.86-5.88a29.076,29.076,0,0,1-6.02-7.28l-.98-5.88-1.54,2.52q-4.48-6.44-7.49-10.15a25.634,25.634,0,0,0-4.69-4.83l8.54,2.66a56.826,56.826,0,0,1-14-11.2q-3.64-3.78-11.34-15.12l.28,18.9a17.7,17.7,0,0,1-.42,2.94,20.38,20.38,0,0,0-.7,2.94v.28l1.96-.28-.56,7.98a31.651,31.651,0,0,0,0,5.95,51.393,51.393,0,0,0,.98,6.37,14.808,14.808,0,0,1,3.22,1.12q1.82.84,4.34,2.1l-1.68,2.24h-1.4L478.26,342q-.84,0-1.4-2.1a5.011,5.011,0,0,0,1.12-1.4,6.022,6.022,0,0,1,2.8,1.54l-1.54-2.24h.98a8.835,8.835,0,0,0,3.22-.28q1.4-2.24,1.4-13.58V294.26q0-13.3-6.02-13.3-.98,0-1.12.42A5.456,5.456,0,0,1,476.72,282.78Zm77.98-12.46,4.06,6.86a65.423,65.423,0,0,0,6.86.42,17.351,17.351,0,0,0,4.34-.42l6.86,4.2-3.08-6.3H575l5.6,5.04-.7-3.22,5.32.28h9.8l2.1-.42q.98-1.96,1.75-3.36a24.2,24.2,0,0,1,1.47-2.38l1.12,1.96a26.494,26.494,0,0,0-1.68,9.38,18.908,18.908,0,0,0,1.68,8.26l-.14,5.32q-1.82-1.68-4.76-8.26-2.38-5.32-5.32-5.32h-1.82a16.978,16.978,0,0,0-2.1.14l-4.06.42q-.84,8.26-.84,26.46,0,2.8.07,8.61t.35,14.77q.42,19.88.84,20.3l1.68.28a7.264,7.264,0,0,0,1.61-.21q.91-.21,2.31-.49a10.71,10.71,0,0,1,3.92-.7l.84.14q-3.36,4.76-14.14,8.82-9.66,3.5-16.38,3.5a3.939,3.939,0,0,1-1.19-.42,3.706,3.706,0,0,0-1.33-.42l1.26-1.68q1.82-.42,10.08-7.56v-31.5l.42-.56,5.04,1.26a32.1,32.1,0,0,1-4.9-5.32l.84-1.4-1.4-3.08,5.46-4.34-5.32.28a28.925,28.925,0,0,1-.07-3.57q.07-2.03.35-4.69,0-2.8.07-4.9t.07-3.5a78.111,78.111,0,0,0-.84-9.1l-.7-.98-7.84-.14a7.193,7.193,0,0,0-6.86,3.22l-4.76,9.1-.56-1.4q2.52-10.22,2.52-13.02,0-.98-.07-1.82t-.21-1.82l.42-.7,1.68,1.12.14-.14Zm102.76,63.7q-1.96-.56-3.36-.84a51.351,51.351,0,0,0,1.68-13.16V306.44h2.8l-3.64-5.74v-5.74a18.983,18.983,0,0,1,.14-2.94q.42-6.72,2.38-6.72h.56l-1.68-3.08a19.262,19.262,0,0,1-8.4-3.22h.56a25.3,25.3,0,0,1,3.5.42l.14-.14q-.7-.56-1.75-1.47t-2.59-2.03l.84-.28q11.34.84,17.92.84a26.021,26.021,0,0,0,6.3-.98l1.54,1.26.7,2.52q-2.24.56-3.5.84t-1.68.42q-3.78,1.4-3.64,3.64l-2.38,4.76,3.64-1.68-1.82,1.82q-1.12,1.12-2.52,2.66v3.64l1.4-3.36,1.54,1.54-.28,39.34.42,2.1,5.04-.56-.42,3.08a15.175,15.175,0,0,1,2.66-1.12,40.589,40.589,0,0,1,4.34-1.12q2.94-.7,4.83-1.26a19,19,0,0,0,3.01-1.12q3.78-1.82,3.78-5.18a47.007,47.007,0,0,0-1.54-7l3.64,2.94q2.66,6.3,2.66,10.5a32.985,32.985,0,0,1-.21,3.78q-.21,1.82-.49,3.78l-2.52.14q-.98.14-1.96.21t-2.24.07q-1.68,0-4.27-.14t-6.09-.42q-3.36-.28-5.95-.49t-4.27-.21q-1.26,0-3.99-.14t-4.13-.14q-10.36,0-14.98,7.14,0-6.3,2.94-9.1,1.54-1.26,6.02-2.52,2.38-.7,3.64-1.19A10.189,10.189,0,0,0,657.46,334.02Zm49.7,6.44q.84-.7,2.59-1.89t4.41-3.01a15.991,15.991,0,0,0,.84-5.18v-6.86l-.28-5.6,4.34,4.62-4.2-8.96q.14-4.76.14-7.28v-3.08a14.1,14.1,0,0,1,4.2-7.7l-4.06,1.96q0-3.5-.07-7.7t-.21-9.24a5.406,5.406,0,0,0-1.54-2.38l-1.4.56a6.147,6.147,0,0,1-2.38-2.1l-2.94-.28,1.26-1.96,11.06,1.82a20.148,20.148,0,0,1,1.19,1.68q.63.98,1.61,2.24l.28-.56a19.181,19.181,0,0,0-.56-3.22q8.82,1.54,10.78,1.26v1.54q-.42.42-4.2,1.4l-.14.14,2.24,1.26-.42.14q-.98-.28-1.54-.42l-.56-.14a4.165,4.165,0,0,0-2.1.56,29.618,29.618,0,0,0-1.54,5.32,2.724,2.724,0,0,0,1.4,1.96l-.14,28.84-2.52,2.66,2.38,1.96.14,10.22-2.24,3.22,1.96-.42a2.937,2.937,0,0,1,2.24.42,16.512,16.512,0,0,0,2.38.7q.42.56,4.34,4.76h-4.06a24.115,24.115,0,0,1-7-1.4,24.115,24.115,0,0,0-7-1.4,4.247,4.247,0,0,0-1.26.14l.42,1.82-.42.7-2.52.7a9,9,0,0,1-2.38-.7A13.986,13.986,0,0,0,707.16,340.46Zm73.08-44.1q-1.12-2.8-1.89-5.18a44.6,44.6,0,0,1-1.19-4.34l-.42,1.12.14,2.66-.42.98q-3.78-7.14-4.9-8.4-2.8-3.78-6.72-3.78a7.312,7.312,0,0,0-5.6,2.24,9.269,9.269,0,0,0-2.52,6.86q0,6.02,6.72,9.8l12.32,7q6.72,5.46,6.72,15.96,0,10.92-4.48,16.8t-12.74,5.88q-3.5,0-10.22-5.88-7-6.02-6.72-10.08l.14-3.08a20.855,20.855,0,0,0,2.52,5.04l.14-1.12q0-.7-.42-3.92t-1.12-8.96q7.14,22.26,16.38,22.26a9.959,9.959,0,0,0,6.86-2.8,11.183,11.183,0,0,0,3.22-8.26q0-5.88-9.1-10.36-3.22-1.4-13.02-6.3l5.6-1.54a50.188,50.188,0,0,1-8.12-2.38v-2.52a20.814,20.814,0,0,0-1.12-5.04,20.093,20.093,0,0,1-.98-5.18q0-9.66,5.04-14.7a26.21,26.21,0,0,1,5.39-4.13,12.991,12.991,0,0,1,6.65-1.75,9.791,9.791,0,0,1,6.51,2.17,15.843,15.843,0,0,1,4.13,5.39,30.214,30.214,0,0,1,1.54,5.39Q779.4,290.06,780.24,296.36Zm19.04-26.04,4.06,6.86a65.423,65.423,0,0,0,6.86.42,17.351,17.351,0,0,0,4.34-.42l6.86,4.2-3.08-6.3h1.26l5.6,5.04-.7-3.22,5.32.28h9.8l2.1-.42q.98-1.96,1.75-3.36a24.177,24.177,0,0,1,1.47-2.38l1.12,1.96a26.494,26.494,0,0,0-1.68,9.38,18.908,18.908,0,0,0,1.68,8.26l-.14,5.32q-1.82-1.68-4.76-8.26-2.38-5.32-5.32-5.32H834a16.978,16.978,0,0,0-2.1.14l-4.06.42q-.84,8.26-.84,26.46,0,2.8.07,8.61t.35,14.77q.42,19.88.84,20.3l1.68.28a7.264,7.264,0,0,0,1.61-.21q.91-.21,2.31-.49a10.71,10.71,0,0,1,3.92-.7l.84.14q-3.36,4.76-14.14,8.82-9.66,3.5-16.38,3.5a3.939,3.939,0,0,1-1.19-.42,3.706,3.706,0,0,0-1.33-.42l1.26-1.68q1.82-.42,10.08-7.56v-31.5l.42-.56,5.04,1.26a32.1,32.1,0,0,1-4.9-5.32l.84-1.4-1.4-3.08,5.46-4.34-5.32.28a28.925,28.925,0,0,1-.07-3.57q.07-2.03.35-4.69,0-2.8.07-4.9t.07-3.5a78.111,78.111,0,0,0-.84-9.1l-.7-.98-7.84-.14a7.193,7.193,0,0,0-6.86,3.22l-4.76,9.1-.56-1.4q2.52-10.22,2.52-13.02,0-.98-.07-1.82t-.21-1.82l.42-.7,1.68,1.12.14-.14Z" transform="translate(117.5 671.5)" fill="#ebc272"/>
  </g>
</svg>
